%TF.GenerationSoftware,KiCad,Pcbnew,8.0.6-8.0.6-0~ubuntu24.04.1*%
%TF.CreationDate,2024-10-18T10:44:36-04:00*%
%TF.ProjectId,ta-expt-v2,74612d65-7870-4742-9d76-322e6b696361,rev?*%
%TF.SameCoordinates,Original*%
%TF.FileFunction,Copper,L4,Bot*%
%TF.FilePolarity,Positive*%
%FSLAX46Y46*%
G04 Gerber Fmt 4.6, Leading zero omitted, Abs format (unit mm)*
G04 Created by KiCad (PCBNEW 8.0.6-8.0.6-0~ubuntu24.04.1) date 2024-10-18 10:44:36*
%MOMM*%
%LPD*%
G01*
G04 APERTURE LIST*
%TA.AperFunction,ComponentPad*%
%ADD10C,1.540000*%
%TD*%
%TA.AperFunction,ComponentPad*%
%ADD11O,1.600000X1.000000*%
%TD*%
%TA.AperFunction,ComponentPad*%
%ADD12O,2.100000X1.000000*%
%TD*%
%TA.AperFunction,ComponentPad*%
%ADD13C,2.540000*%
%TD*%
%TA.AperFunction,ViaPad*%
%ADD14C,0.457200*%
%TD*%
%TA.AperFunction,Conductor*%
%ADD15C,0.127000*%
%TD*%
G04 APERTURE END LIST*
D10*
%TO.P,J8,15,Pin_15*%
%TO.N,unconnected-(J8-Pin_15-Pad15)*%
X174000000Y-127050000D03*
X171510000Y-127050000D03*
%TO.P,J8,14,Pin_14*%
%TO.N,unconnected-(J8-Pin_14-Pad14)*%
X168970000Y-127050000D03*
%TO.P,J8,13,Pin_13*%
%TO.N,unconnected-(J8-Pin_13-Pad13)*%
X166430000Y-127050000D03*
%TO.P,J8,12,Pin_12*%
%TO.N,/LPUART_RTS*%
X163890000Y-127050000D03*
%TO.P,J8,11,Pin_11*%
%TO.N,/LPUART_RX*%
X161350000Y-127050000D03*
%TO.P,J8,10,Pin_10*%
%TO.N,/LPUART_TX*%
X158810000Y-127050000D03*
%TO.P,J8,9,Pin_9*%
%TO.N,/LPUART_CTS*%
X156270000Y-127050000D03*
%TO.P,J8,8,Pin_8*%
%TO.N,/BOOT0*%
X153730000Y-127050000D03*
%TO.P,J8,7,Pin_7*%
%TO.N,unconnected-(J8-Pin_7-Pad7)*%
X151190000Y-127050000D03*
%TO.P,J8,6,Pin_6*%
%TO.N,unconnected-(J8-Pin_6-Pad6)*%
X148650000Y-127050000D03*
%TO.P,J8,5,Pin_5*%
%TO.N,unconnected-(J8-Pin_5-Pad5)*%
X146110000Y-127050000D03*
%TO.P,J8,4,Pin_4*%
%TO.N,unconnected-(J8-Pin_4-Pad4)*%
X143570000Y-127050000D03*
%TO.P,J8,3,Pin_3*%
%TO.N,unconnected-(J8-Pin_3-Pad3)*%
X141030000Y-127050000D03*
%TO.P,J8,2,Pin_2*%
%TO.N,unconnected-(J8-Pin_2-Pad2)*%
X138490000Y-127050000D03*
%TO.P,J8,1,Pin_1*%
%TO.N,unconnected-(J8-Pin_1-Pad1)*%
X135950000Y-127050000D03*
%TD*%
%TO.P,J9,15,Pin_15*%
%TO.N,unconnected-(J9-Pin_15-Pad15)*%
X174000000Y-88950000D03*
X171510000Y-88950000D03*
%TO.P,J9,14,Pin_14*%
%TO.N,unconnected-(J9-Pin_14-Pad14)*%
X168970000Y-88950000D03*
%TO.P,J9,13,Pin_13*%
%TO.N,unconnected-(J9-Pin_13-Pad13)*%
X166430000Y-88950000D03*
%TO.P,J9,12,Pin_12*%
%TO.N,/USART1_RTS*%
X163890000Y-88950000D03*
%TO.P,J9,11,Pin_11*%
%TO.N,/USART1_RX*%
X161350000Y-88950000D03*
%TO.P,J9,10,Pin_10*%
%TO.N,/USART1_TX*%
X158810000Y-88950000D03*
%TO.P,J9,9,Pin_9*%
%TO.N,/USART1_CTS*%
X156270000Y-88950000D03*
%TO.P,J9,8,Pin_8*%
%TO.N,/USART1_CK*%
X153730000Y-88950000D03*
%TO.P,J9,7,Pin_7*%
%TO.N,/NRST*%
X151190000Y-88950000D03*
%TO.P,J9,6,Pin_6*%
%TO.N,unconnected-(J9-Pin_6-Pad6)*%
X148650000Y-88950000D03*
%TO.P,J9,5,Pin_5*%
%TO.N,unconnected-(J9-Pin_5-Pad5)*%
X146110000Y-88950000D03*
%TO.P,J9,4,Pin_4*%
%TO.N,unconnected-(J9-Pin_4-Pad4)*%
X143570000Y-88950000D03*
%TO.P,J9,3,Pin_3*%
%TO.N,GND*%
X141030000Y-88950000D03*
%TO.P,J9,2,Pin_2*%
%TO.N,unconnected-(J9-Pin_2-Pad2)*%
X138490000Y-88950000D03*
%TO.P,J9,1,Pin_1*%
%TO.N,unconnected-(J9-Pin_1-Pad1)*%
X135950000Y-88950000D03*
%TD*%
%TO.P,J1,5,Pin_5*%
%TO.N,unconnected-(J1-Pin_5-Pad5)*%
X174070000Y-91190000D03*
%TO.P,J1,4,Pin_4*%
%TO.N,unconnected-(J1-Pin_4-Pad4)*%
X174070000Y-93730000D03*
%TO.P,J1,3,Pin_3*%
%TO.N,GND*%
X174070000Y-96270000D03*
%TO.P,J1,2,Pin_2*%
%TO.N,unconnected-(J1-Pin_2-Pad2)*%
X174070000Y-98810000D03*
%TD*%
%TO.P,J2,4,Pin_4*%
%TO.N,unconnected-(J2-Pin_4-Pad4)*%
X135950000Y-91920000D03*
%TO.P,J2,3,Pin_3*%
%TO.N,unconnected-(J2-Pin_3-Pad3)*%
X135950000Y-94460000D03*
%TO.P,J2,2,Pin_2*%
%TO.N,GND*%
X135950000Y-97000000D03*
%TO.P,J2,1,Pin_1*%
%TO.N,unconnected-(J2-Pin_1-Pad1)*%
X135950000Y-99540000D03*
%TD*%
%TO.P,J7,4,Pin_4*%
%TO.N,/SWCLK*%
X135950000Y-124510000D03*
%TO.P,J7,3,Pin_3*%
%TO.N,/SWDIO*%
X135950000Y-121970000D03*
%TO.P,J7,2,Pin_2*%
%TO.N,GND*%
X135950000Y-119430000D03*
%TO.P,J7,1,Pin_1*%
%TO.N,VDD*%
X135950000Y-116890000D03*
%TD*%
D11*
%TO.P,J3,S1,SHIELD*%
%TO.N,unconnected-(J3-SHIELD-PadS1)*%
X135425000Y-112320000D03*
D12*
X139605000Y-112320000D03*
D11*
X135425000Y-103680000D03*
D12*
X139605000Y-103680000D03*
%TD*%
D13*
%TO.P,J6,4,Pin_4*%
%TO.N,GND*%
X171000000Y-124000000D03*
%TO.P,J6,3,Pin_3*%
X139000000Y-124000000D03*
%TO.P,J6,2,Pin_2*%
X171000000Y-92000000D03*
%TO.P,J6,1,Pin_1*%
X139000000Y-92000000D03*
%TD*%
D10*
%TO.P,J4,5,Pin_5*%
%TO.N,unconnected-(J4-Pin_5-Pad5)*%
X174070000Y-124540000D03*
%TO.P,J4,4,Pin_4*%
%TO.N,unconnected-(J4-Pin_4-Pad4)*%
X174070000Y-122000000D03*
%TO.P,J4,3,Pin_3*%
%TO.N,unconnected-(J4-Pin_3-Pad3)*%
X174070000Y-119460000D03*
%TO.P,J4,2,Pin_2*%
%TO.N,unconnected-(J4-Pin_2-Pad2)*%
X174070000Y-116920000D03*
%TD*%
D14*
%TO.N,GND*%
X144500000Y-113500000D03*
X138500000Y-98500000D03*
X160500000Y-117000000D03*
X167000000Y-119000000D03*
X176500000Y-102000000D03*
X168500000Y-101500000D03*
X151500000Y-125500000D03*
X170500000Y-119000000D03*
X147000000Y-124500000D03*
X160000000Y-90500000D03*
X160500000Y-99000000D03*
X144500000Y-95500000D03*
X145000000Y-90500000D03*
X163000000Y-124000000D03*
X142500000Y-124500000D03*
X153500000Y-95000000D03*
X161500000Y-104500000D03*
X142500000Y-90500000D03*
X164000000Y-120500000D03*
X165000000Y-104500000D03*
X168500000Y-108500000D03*
X141000000Y-104000000D03*
X166500000Y-98000000D03*
X157000000Y-97000000D03*
X166500000Y-95000000D03*
X149500000Y-99000000D03*
X165500000Y-95000000D03*
X164000000Y-105000000D03*
X146000000Y-113500000D03*
X164000000Y-109500000D03*
X165000000Y-111500000D03*
X165500000Y-98000000D03*
%TO.N,/VDD_FILT*%
X148500000Y-114000000D03*
X170500000Y-102000000D03*
X163000000Y-90000000D03*
X148000000Y-98000000D03*
X139500000Y-118500000D03*
X148500000Y-113000000D03*
X164000000Y-121500000D03*
X139500000Y-115500000D03*
X161000000Y-114500000D03*
X160000000Y-101500000D03*
X149000000Y-101500000D03*
X161500000Y-109000000D03*
X161500000Y-103500000D03*
%TO.N,/NRST*%
X152500000Y-93000000D03*
X160000000Y-107500000D03*
%TO.N,/LPUART_RX*%
X150500000Y-99000000D03*
X160500000Y-128500000D03*
%TO.N,/LPUART_RTS*%
X162500000Y-129500000D03*
X146500000Y-101500000D03*
%TO.N,/DCMI_D6*%
X176000000Y-109750000D03*
X158500000Y-114500000D03*
%TO.N,/DCMI_D2*%
X149500000Y-109000000D03*
X148500000Y-109000000D03*
X159500000Y-112000000D03*
X174000000Y-112500000D03*
%TO.N,/QUADSPI_BK2_IO1*%
X158500000Y-96500000D03*
X161500000Y-106000000D03*
%TO.N,/DCMI_D3*%
X173500000Y-109500000D03*
X146000000Y-109500000D03*
X160000000Y-112500000D03*
X150000000Y-109500000D03*
%TO.N,/DCMI_VSYNC*%
X157500000Y-114500000D03*
X173000000Y-105500000D03*
%TO.N,Net-(IC3-PH3-BOOT0)*%
X154500000Y-122500000D03*
X158000000Y-117000000D03*
%TO.N,/Control*%
X165000000Y-113500000D03*
%TO.N,/SWDIO*%
X144000000Y-112500000D03*
X146000000Y-112500000D03*
%TO.N,/DCMI_PIXCLK*%
X158500000Y-99000000D03*
X169500000Y-107500000D03*
%TO.N,/LED2*%
X143500000Y-118000000D03*
X146000000Y-117000000D03*
%TO.N,/D-*%
X144500000Y-111000000D03*
X146000000Y-111500000D03*
%TO.N,/LPUART_CTS*%
X146000000Y-102500000D03*
X155000000Y-130000000D03*
%TO.N,/USART1_RX*%
X162500000Y-89500000D03*
X148500000Y-111000000D03*
%TO.N,/DCMI_HSYNC*%
X173500000Y-106500000D03*
X159500000Y-99000000D03*
%TO.N,/QUADSPI_BK2_IO2*%
X161000000Y-105500000D03*
X158000000Y-97000000D03*
%TO.N,/DCMI_D4*%
X161000000Y-113500000D03*
X174000000Y-110500000D03*
%TO.N,/SWCLK*%
X149000000Y-117000000D03*
X145000000Y-116000000D03*
%TO.N,/USART1_CK*%
X152500000Y-89500000D03*
X148500000Y-110000000D03*
%TO.N,/D+*%
X148500000Y-112000000D03*
X144500000Y-112000000D03*
%TO.N,/DCMI_D7*%
X160000000Y-114500000D03*
X174000000Y-109000000D03*
%TO.N,/DCMI_D5*%
X157000000Y-117000000D03*
X175500000Y-114500000D03*
%TO.N,/QUADSPI_BK1_NCS*%
X163000000Y-101500000D03*
X158500000Y-95500000D03*
%TO.N,/USART1_TX*%
X146000000Y-110500000D03*
X157500000Y-88500000D03*
%TO.N,/LPUART_TX*%
X157500000Y-129000000D03*
X150000000Y-101500000D03*
%TO.N,/LED1*%
X147000000Y-117000000D03*
X145500000Y-118000000D03*
%TO.N,Net-(IC2-G)*%
X148000000Y-117000000D03*
X148000000Y-119000000D03*
%TO.N,/I2C3_SDA*%
X173000000Y-108000000D03*
X156000000Y-117000000D03*
%TO.N,/DCMI_D8*%
X174000000Y-108000000D03*
X160500000Y-113000000D03*
%TO.N,/I2C3_SCL*%
X169500000Y-104500000D03*
X164000000Y-106500000D03*
%TO.N,/DCMI_D9*%
X169500000Y-109000000D03*
X156500000Y-114000000D03*
%TO.N,Net-(J3-CC2)*%
X140500000Y-114500000D03*
%TO.N,Net-(J3-CC1)*%
X140500000Y-101500000D03*
X142000000Y-105000000D03*
%TO.N,Net-(J3-CC2)*%
X141500000Y-113000000D03*
%TO.N,GND*%
X141000000Y-111500000D03*
%TD*%
D15*
%TO.N,/USART1_TX*%
X155500000Y-87500000D02*
X156500000Y-87500000D01*
X153538353Y-90500000D02*
X155000000Y-89038353D01*
X151746000Y-98859210D02*
X151746000Y-92254000D01*
X151992000Y-99105210D02*
X151746000Y-98859210D01*
X155000000Y-88000000D02*
X155500000Y-87500000D01*
X153500000Y-90500000D02*
X153538353Y-90500000D01*
X151746000Y-92254000D02*
X153500000Y-90500000D01*
X151992000Y-105762000D02*
X151992000Y-99105210D01*
X149982172Y-110500000D02*
X150754000Y-109728172D01*
X155000000Y-89038353D02*
X155000000Y-88000000D01*
X150754000Y-107000000D02*
X151992000Y-105762000D01*
X150754000Y-109728172D02*
X150754000Y-107000000D01*
X146000000Y-110500000D02*
X149982172Y-110500000D01*
X156500000Y-87500000D02*
X157500000Y-88500000D01*
%TO.N,/DCMI_D5*%
X173315823Y-116315823D02*
X174524000Y-115107647D01*
X173131646Y-116500000D02*
X173315823Y-116315823D01*
X157000000Y-117000000D02*
X157500000Y-116500000D01*
X157500000Y-116500000D02*
X173131646Y-116500000D01*
%TO.N,/DCMI_VSYNC*%
X157500000Y-114500000D02*
X157500000Y-116000000D01*
X157500000Y-116000000D02*
X157746000Y-116246000D01*
X157746000Y-116246000D02*
X172972420Y-116246000D01*
X172972420Y-116246000D02*
X174270000Y-114948420D01*
X174270000Y-114948420D02*
X174270000Y-113894790D01*
X174270000Y-113894790D02*
X176500000Y-111664790D01*
X176500000Y-111664790D02*
X176500000Y-107000000D01*
X176500000Y-107000000D02*
X175000000Y-105500000D01*
X175000000Y-105500000D02*
X173000000Y-105500000D01*
%TO.N,/DCMI_D6*%
X158500000Y-114500000D02*
X158500000Y-115500000D01*
X174016000Y-114843210D02*
X174016000Y-113343210D01*
X158500000Y-115500000D02*
X158992000Y-115992000D01*
X158992000Y-115992000D02*
X172867210Y-115992000D01*
X172867210Y-115992000D02*
X174016000Y-114843210D01*
X174016000Y-113343210D02*
X176000000Y-111359210D01*
X176000000Y-111359210D02*
X176000000Y-109750000D01*
%TO.N,/NRST*%
X160000000Y-106692592D02*
X160000000Y-107500000D01*
X152500000Y-99192592D02*
X160000000Y-106692592D01*
X152500000Y-93000000D02*
X152500000Y-99192592D01*
%TO.N,/DCMI_D2*%
X173754000Y-114746000D02*
X172762000Y-115738000D01*
X173762000Y-114000000D02*
X173762000Y-113238000D01*
X173754000Y-114746000D02*
X173762000Y-114738000D01*
X174000000Y-113000000D02*
X174000000Y-112500000D01*
X173762000Y-113238000D02*
X174000000Y-113000000D01*
X159500000Y-115500000D02*
X159500000Y-112000000D01*
X159738000Y-115738000D02*
X159500000Y-115500000D01*
X173762000Y-114738000D02*
X173762000Y-114000000D01*
X148500000Y-109000000D02*
X149500000Y-109000000D01*
X172762000Y-115738000D02*
X159738000Y-115738000D01*
%TO.N,/QUADSPI_BK2_IO1*%
X161940500Y-105559500D02*
X161500000Y-106000000D01*
X158500000Y-96500000D02*
X158982172Y-96500000D01*
X158982172Y-96500000D02*
X161940500Y-99458328D01*
X161940500Y-99458328D02*
X161940500Y-105559500D01*
%TO.N,/DCMI_D3*%
X174000000Y-109500000D02*
X173500000Y-109500000D01*
X146000000Y-109500000D02*
X150000000Y-109500000D01*
X173254000Y-112000000D02*
X174440500Y-110813500D01*
X174440500Y-109940500D02*
X174000000Y-109500000D01*
X173254000Y-114527580D02*
X172551580Y-115230000D01*
X160730000Y-115230000D02*
X160500000Y-115000000D01*
X160500000Y-115000000D02*
X160500000Y-114377038D01*
X160500000Y-114377038D02*
X160000000Y-113877038D01*
X172551580Y-115230000D02*
X160730000Y-115230000D01*
X174440500Y-110813500D02*
X174440500Y-109940500D01*
X173254000Y-112000000D02*
X173254000Y-114527580D01*
X160000000Y-113877038D02*
X160000000Y-112500000D01*
%TO.N,Net-(IC3-PH3-BOOT0)*%
X158000000Y-119000000D02*
X158000000Y-117000000D01*
X154500000Y-122500000D02*
X158000000Y-119000000D01*
%TO.N,/Control*%
X165000000Y-113500000D02*
X162500000Y-113500000D01*
X162500000Y-113500000D02*
X161500000Y-112500000D01*
%TO.N,/SWDIO*%
X144000000Y-112500000D02*
X146000000Y-112500000D01*
%TO.N,/DCMI_PIXCLK*%
X161166618Y-107500000D02*
X169500000Y-107500000D01*
X158500000Y-99000000D02*
X158500000Y-104833382D01*
X158500000Y-104833382D02*
X161166618Y-107500000D01*
%TO.N,/LED2*%
X146000000Y-117000000D02*
X144500000Y-117000000D01*
X144500000Y-117000000D02*
X143500000Y-118000000D01*
%TO.N,/D-*%
X144500000Y-111000000D02*
X145500000Y-111000000D01*
X145500000Y-111000000D02*
X146000000Y-111500000D01*
%TO.N,/USART1_RX*%
X152000000Y-92877038D02*
X154966538Y-89910500D01*
X152246000Y-106270000D02*
X152246000Y-99000000D01*
X152000000Y-93000000D02*
X152000000Y-92877038D01*
X162089500Y-89910500D02*
X162500000Y-89500000D01*
X152000000Y-98754000D02*
X152000000Y-93000000D01*
X154966538Y-89910500D02*
X162089500Y-89910500D01*
X151008000Y-109833382D02*
X151008000Y-107508000D01*
X148500000Y-111000000D02*
X149841382Y-111000000D01*
X149841382Y-111000000D02*
X151008000Y-109833382D01*
X152246000Y-99000000D02*
X152000000Y-98754000D01*
X151008000Y-107508000D02*
X152246000Y-106270000D01*
%TO.N,/DCMI_HSYNC*%
X168500000Y-107246000D02*
X169246000Y-106500000D01*
X159500000Y-105474172D02*
X161271828Y-107246000D01*
X159500000Y-99000000D02*
X159500000Y-105474172D01*
X161271828Y-107246000D02*
X168500000Y-107246000D01*
X169246000Y-106500000D02*
X173500000Y-106500000D01*
%TO.N,/QUADSPI_BK2_IO2*%
X159122962Y-97000000D02*
X161000000Y-98877038D01*
X161000000Y-98877038D02*
X161000000Y-105500000D01*
X158000000Y-97000000D02*
X159122962Y-97000000D01*
%TO.N,/DCMI_D4*%
X173000000Y-114315630D02*
X173000000Y-114000000D01*
X162000000Y-114500000D02*
X162476000Y-114976000D01*
X161622962Y-113500000D02*
X162000000Y-113877038D01*
X162476000Y-114976000D02*
X172000000Y-114976000D01*
X172339630Y-114976000D02*
X173000000Y-114315630D01*
X162000000Y-113877038D02*
X162000000Y-114500000D01*
X173000000Y-114000000D02*
X173000000Y-111500000D01*
X161000000Y-113500000D02*
X161622962Y-113500000D01*
X173000000Y-111500000D02*
X174000000Y-110500000D01*
X172000000Y-114976000D02*
X172339630Y-114976000D01*
%TO.N,/SWCLK*%
X145000000Y-116000000D02*
X148000000Y-116000000D01*
X148000000Y-116000000D02*
X149000000Y-117000000D01*
%TO.N,/USART1_CK*%
X151246000Y-93000000D02*
X151246000Y-90754000D01*
X148500000Y-110000000D02*
X150122962Y-110000000D01*
X150500000Y-106500000D02*
X150500000Y-103500000D01*
X151246000Y-102754000D02*
X151246000Y-93000000D01*
X151246000Y-90754000D02*
X152500000Y-89500000D01*
X150500000Y-103500000D02*
X151246000Y-102754000D01*
X150500000Y-109622962D02*
X150500000Y-106500000D01*
X150122962Y-110000000D02*
X150500000Y-109622962D01*
%TO.N,/D+*%
X144500000Y-112000000D02*
X148500000Y-112000000D01*
%TO.N,/DCMI_D7*%
X175000000Y-110613210D02*
X175000000Y-110000000D01*
X173508000Y-112105210D02*
X175000000Y-110613210D01*
X175000000Y-110000000D02*
X174000000Y-109000000D01*
X160000000Y-115000000D02*
X160484000Y-115484000D01*
X173508000Y-114632790D02*
X173508000Y-112105210D01*
X160000000Y-114500000D02*
X160000000Y-115000000D01*
X172656790Y-115484000D02*
X173508000Y-114632790D01*
X160484000Y-115484000D02*
X172656790Y-115484000D01*
%TO.N,/QUADSPI_BK1_NCS*%
X163000000Y-100000000D02*
X163000000Y-101500000D01*
X158500000Y-95500000D02*
X163000000Y-100000000D01*
%TO.N,/LPUART_TX*%
X145500000Y-104000000D02*
X147500000Y-104000000D01*
X141746000Y-107754000D02*
X145500000Y-104000000D01*
X147500000Y-104000000D02*
X150000000Y-101500000D01*
%TO.N,/LED1*%
X146000000Y-118000000D02*
X145500000Y-118000000D01*
X147000000Y-117000000D02*
X146000000Y-118000000D01*
%TO.N,Net-(IC2-G)*%
X148000000Y-117000000D02*
X148000000Y-119000000D01*
%TO.N,/I2C3_SDA*%
X156000000Y-117000000D02*
X156000000Y-113877038D01*
X156000000Y-113877038D02*
X161877038Y-108000000D01*
X161877038Y-108000000D02*
X173000000Y-108000000D01*
%TO.N,/DCMI_D8*%
X162500000Y-114500000D02*
X162722000Y-114722000D01*
X172713500Y-109286500D02*
X174000000Y-108000000D01*
X160500000Y-113000000D02*
X161482172Y-113000000D01*
X162500000Y-114017828D02*
X162500000Y-114500000D01*
X161482172Y-113000000D02*
X162500000Y-114017828D01*
X172713500Y-114000000D02*
X172713500Y-109286500D01*
X162722000Y-114722000D02*
X172105210Y-114722000D01*
X172105210Y-114722000D02*
X172137041Y-114722000D01*
X172137041Y-114722000D02*
X172713500Y-114145541D01*
X172713500Y-114145541D02*
X172713500Y-114000000D01*
%TO.N,/DCMI_D9*%
X163877038Y-109000000D02*
X169500000Y-109000000D01*
X156500000Y-114000000D02*
X161000000Y-109500000D01*
X161000000Y-109500000D02*
X163377038Y-109500000D01*
X163377038Y-109500000D02*
X163877038Y-109000000D01*
%TO.N,Net-(J3-CC2)*%
X140500000Y-114000000D02*
X140500000Y-114500000D01*
%TO.N,Net-(J3-CC1)*%
X142000000Y-105000000D02*
X142000000Y-103000000D01*
X142000000Y-103000000D02*
X140500000Y-101500000D01*
%TO.N,/LPUART_CTS*%
X136422370Y-130000000D02*
X155000000Y-130000000D01*
X134922370Y-128500000D02*
X136422370Y-130000000D01*
X146000000Y-102500000D02*
X141500000Y-107000000D01*
X141500000Y-107000000D02*
X135500000Y-107000000D01*
%TO.N,/LPUART_RTS*%
X136281580Y-129500000D02*
X162500000Y-129500000D01*
X135390790Y-128609210D02*
X136281580Y-129500000D01*
X146500000Y-102622962D02*
X141622962Y-107500000D01*
X146500000Y-101500000D02*
X146500000Y-102622962D01*
X141622962Y-107500000D02*
X135500000Y-107500000D01*
%TO.N,/LPUART_TX*%
X135605210Y-107754000D02*
X141746000Y-107754000D01*
X136140790Y-129000000D02*
X157500000Y-129000000D01*
X135820395Y-128679605D02*
X136140790Y-129000000D01*
%TO.N,/DCMI_D5*%
X174524000Y-115107647D02*
X175131647Y-114500000D01*
X175131647Y-114500000D02*
X175500000Y-114500000D01*
%TO.N,/LPUART_TX*%
X135820395Y-128679605D02*
X133508000Y-126367210D01*
%TO.N,/LPUART_RTS*%
X133254000Y-126472420D02*
X135390790Y-128609210D01*
%TO.N,/LPUART_CTS*%
X133000000Y-126577630D02*
X134922370Y-128500000D01*
%TO.N,/LPUART_RTS*%
X133254000Y-109746000D02*
X133254000Y-112500000D01*
X133254000Y-112500000D02*
X133254000Y-113105210D01*
%TO.N,/LPUART_CTS*%
X133000000Y-109500000D02*
X133000000Y-113000000D01*
X133000000Y-113000000D02*
X133000000Y-126577630D01*
%TO.N,/LPUART_TX*%
X133508000Y-126367210D02*
X133508000Y-109851210D01*
%TO.N,/LPUART_RTS*%
X133254000Y-113105210D02*
X133254000Y-126472420D01*
X135500000Y-107500000D02*
X133254000Y-109746000D01*
%TO.N,/LPUART_CTS*%
X135500000Y-107000000D02*
X133000000Y-109500000D01*
%TO.N,/LPUART_TX*%
X133508000Y-109851210D02*
X135605210Y-107754000D01*
%TO.N,/LPUART_RX*%
X145605210Y-104254000D02*
X142179605Y-107679605D01*
X150500000Y-101622962D02*
X147943357Y-104179605D01*
X150500000Y-99000000D02*
X150500000Y-101622962D01*
X147943357Y-104179605D02*
X147679605Y-104179605D01*
X146000000Y-104254000D02*
X145605210Y-104254000D01*
X133762000Y-112500000D02*
X133762000Y-126262000D01*
X136000000Y-128500000D02*
X160500000Y-128500000D01*
X147679605Y-104179605D02*
X147605210Y-104254000D01*
X147605210Y-104254000D02*
X146000000Y-104254000D01*
X141851210Y-108008000D02*
X136000000Y-108008000D01*
X133762000Y-126262000D02*
X136000000Y-128500000D01*
X136000000Y-108008000D02*
X133762000Y-110246000D01*
X133762000Y-110246000D02*
X133762000Y-112500000D01*
X142179605Y-107679605D02*
X141851210Y-108008000D01*
%TO.N,Net-(J3-CC2)*%
X141500000Y-113000000D02*
X140500000Y-114000000D01*
%TO.N,/I2C3_SCL*%
X167500000Y-106500000D02*
X169500000Y-104500000D01*
X164000000Y-106500000D02*
X167500000Y-106500000D01*
%TD*%
M02*
