M48
; DRILL file {KiCad 8.0.6-8.0.6-0~ubuntu24.04.1} date 2024-10-18T10:48:33-0400
; FORMAT={-:-/ absolute / inch / decimal}
; #@! TF.CreationDate,2024-10-18T10:48:33-04:00
; #@! TF.GenerationSoftware,Kicad,Pcbnew,8.0.6-8.0.6-0~ubuntu24.04.1
; #@! TF.FileFunction,Plated,1,4,PTH
FMAT,2
INCH
; #@! TA.AperFunction,Plated,PTH,ViaDrill
T1C0.0100
; #@! TA.AperFunction,Plated,PTH,ComponentDrill
T2C0.0236
; #@! TA.AperFunction,Plated,PTH,ComponentDrill
T3C0.0394
; #@! TA.AperFunction,Plated,PTH,ComponentDrill
T4C0.0858
%
G90
G05
T1
X5.4528Y-3.878
X5.4921Y-4.5472
X5.4921Y-4.6654
X5.5315Y-3.9961
X5.5315Y-4.5079
X5.5512Y-4.0945
X5.5512Y-4.3898
X5.5709Y-4.4488
X5.5906Y-4.1339
X5.6102Y-3.563
X5.6102Y-4.9016
X5.6496Y-4.6457
X5.6693Y-4.4291
X5.689Y-3.7598
X5.689Y-4.3701
X5.689Y-4.4094
X5.689Y-4.4685
X5.7087Y-3.563
X5.7087Y-4.5669
X5.7283Y-4.6457
X5.748Y-4.0354
X5.748Y-4.311
X5.748Y-4.3504
X5.748Y-4.3898
X5.748Y-4.4291
X5.748Y-4.4685
X5.748Y-4.6063
X5.7677Y-3.9961
X5.7874Y-4.6063
X5.7874Y-4.9016
X5.8268Y-3.8583
X5.8268Y-4.6063
X5.8268Y-4.685
X5.8465Y-4.2913
X5.8465Y-4.3307
X5.8465Y-4.3701
X5.8465Y-4.4094
X5.8465Y-4.4488
X5.8465Y-4.4882
X5.8661Y-3.9961
X5.8661Y-4.6063
X5.8858Y-3.8976
X5.8858Y-4.2913
X5.9055Y-3.9961
X5.9055Y-4.311
X5.9252Y-3.8976
X5.9646Y-4.9409
X6.0039Y-3.5236
X6.0039Y-3.6614
X6.0433Y-3.7402
X6.0827Y-4.8228
X6.1024Y-5.1181
X6.1417Y-4.6063
X6.1614Y-4.4882
X6.1811Y-3.8189
X6.1811Y-4.6063
X6.2008Y-3.4843
X6.2008Y-4.5079
X6.2008Y-5.0787
X6.2205Y-3.8189
X6.2205Y-4.6063
X6.2402Y-3.7598
X6.2402Y-3.7992
X6.2402Y-3.8976
X6.2402Y-4.5079
X6.2795Y-3.8976
X6.2795Y-4.4094
X6.2992Y-3.563
X6.2992Y-3.9961
X6.2992Y-4.2323
X6.2992Y-4.4291
X6.2992Y-4.5079
X6.3189Y-3.8976
X6.3189Y-4.4488
X6.3189Y-4.6063
X6.3189Y-5.0591
X6.3386Y-4.1535
X6.3386Y-4.4685
X6.3386Y-4.5079
X6.3583Y-4.0748
X6.3583Y-4.1142
X6.3583Y-4.1732
X6.3583Y-4.2913
X6.3976Y-3.5236
X6.3976Y-5.0984
X6.4173Y-3.5433
X6.4173Y-3.9961
X6.4173Y-4.8819
X6.4567Y-4.1339
X6.4567Y-4.1929
X6.4567Y-4.311
X6.4567Y-4.7441
X6.4567Y-4.7835
X6.4961Y-4.1142
X6.4961Y-4.3898
X6.4961Y-4.4685
X6.5157Y-3.7402
X6.5157Y-3.8583
X6.5551Y-3.7402
X6.5551Y-3.8583
X6.5748Y-4.685
X6.6339Y-3.9961
X6.6339Y-4.2717
X6.6732Y-4.1142
X6.6732Y-4.2323
X6.6732Y-4.2913
X6.7126Y-4.0157
X6.7126Y-4.685
X6.811Y-4.1535
X6.811Y-4.252
X6.8307Y-4.1929
X6.8307Y-4.311
X6.8504Y-4.252
X6.8504Y-4.2913
X6.8504Y-4.3504
X6.8504Y-4.4291
X6.9094Y-4.5079
X6.9291Y-4.3209
X6.9488Y-4.0157
T3
X5.3524Y-3.502
X5.3524Y-3.6189
X5.3524Y-3.7189
X5.3524Y-3.8189
X5.3524Y-3.9189
X5.3524Y-4.602
X5.3524Y-4.702
X5.3524Y-4.802
X5.3524Y-4.902
X5.3524Y-5.002
X5.4524Y-3.502
X5.4524Y-5.002
X5.5524Y-3.502
X5.5524Y-5.002
X5.6524Y-3.502
X5.6524Y-5.002
X5.7524Y-3.502
X5.7524Y-5.002
X5.8524Y-3.502
X5.8524Y-5.002
X5.9524Y-3.502
X5.9524Y-5.002
X6.0524Y-3.502
X6.0524Y-5.002
X6.1524Y-3.502
X6.1524Y-5.002
X6.2524Y-3.502
X6.2524Y-5.002
X6.3524Y-3.502
X6.3524Y-5.002
X6.4524Y-3.502
X6.4524Y-5.002
X6.5524Y-3.502
X6.5524Y-5.002
X6.6524Y-3.502
X6.6524Y-5.002
X6.7524Y-3.502
X6.7524Y-5.002
X6.8504Y-3.502
X6.8504Y-5.002
X6.8531Y-3.5902
X6.8531Y-3.6902
X6.8531Y-3.7902
X6.8531Y-3.8902
X6.8531Y-4.6031
X6.8531Y-4.7031
X6.8531Y-4.8031
X6.8531Y-4.9031
T4
X5.4724Y-3.622
X5.4724Y-4.8819
X6.7323Y-3.622
X6.7323Y-4.8819
T2
G00X5.3435Y-4.0819
M15
G01X5.3199Y-4.0819
M16
G05
G00X5.3435Y-4.422
M15
G01X5.3199Y-4.422
M16
G05
G00X5.5179Y-4.0819
M15
G01X5.4746Y-4.0819
M16
G05
G00X5.5179Y-4.422
M15
G01X5.4746Y-4.422
M16
G05
M30
