%TF.GenerationSoftware,KiCad,Pcbnew,8.0.6-8.0.6-0~ubuntu24.04.1*%
%TF.CreationDate,2024-10-18T10:44:36-04:00*%
%TF.ProjectId,ta-expt-v2,74612d65-7870-4742-9d76-322e6b696361,rev?*%
%TF.SameCoordinates,Original*%
%TF.FileFunction,Copper,L1,Top*%
%TF.FilePolarity,Positive*%
%FSLAX46Y46*%
G04 Gerber Fmt 4.6, Leading zero omitted, Abs format (unit mm)*
G04 Created by KiCad (PCBNEW 8.0.6-8.0.6-0~ubuntu24.04.1) date 2024-10-18 10:44:36*
%MOMM*%
%LPD*%
G01*
G04 APERTURE LIST*
G04 Aperture macros list*
%AMRoundRect*
0 Rectangle with rounded corners*
0 $1 Rounding radius*
0 $2 $3 $4 $5 $6 $7 $8 $9 X,Y pos of 4 corners*
0 Add a 4 corners polygon primitive as box body*
4,1,4,$2,$3,$4,$5,$6,$7,$8,$9,$2,$3,0*
0 Add four circle primitives for the rounded corners*
1,1,$1+$1,$2,$3*
1,1,$1+$1,$4,$5*
1,1,$1+$1,$6,$7*
1,1,$1+$1,$8,$9*
0 Add four rect primitives between the rounded corners*
20,1,$1+$1,$2,$3,$4,$5,0*
20,1,$1+$1,$4,$5,$6,$7,0*
20,1,$1+$1,$6,$7,$8,$9,0*
20,1,$1+$1,$8,$9,$2,$3,0*%
G04 Aperture macros list end*
%TA.AperFunction,ComponentPad*%
%ADD10C,1.540000*%
%TD*%
%TA.AperFunction,SMDPad,CuDef*%
%ADD11R,0.990000X0.780000*%
%TD*%
%TA.AperFunction,SMDPad,CuDef*%
%ADD12R,1.000000X0.800000*%
%TD*%
%TA.AperFunction,SMDPad,CuDef*%
%ADD13R,0.780000X0.990000*%
%TD*%
%TA.AperFunction,SMDPad,CuDef*%
%ADD14R,6.400000X2.300000*%
%TD*%
%TA.AperFunction,SMDPad,CuDef*%
%ADD15R,0.300000X1.475000*%
%TD*%
%TA.AperFunction,SMDPad,CuDef*%
%ADD16R,1.475000X0.300000*%
%TD*%
%TA.AperFunction,SMDPad,CuDef*%
%ADD17R,1.785000X0.650000*%
%TD*%
%TA.AperFunction,SMDPad,CuDef*%
%ADD18R,0.940000X0.750000*%
%TD*%
%TA.AperFunction,SMDPad,CuDef*%
%ADD19R,0.800000X0.800000*%
%TD*%
%TA.AperFunction,SMDPad,CuDef*%
%ADD20R,1.300000X1.100000*%
%TD*%
%TA.AperFunction,SMDPad,CuDef*%
%ADD21R,0.900000X1.000000*%
%TD*%
%TA.AperFunction,SMDPad,CuDef*%
%ADD22R,1.800000X1.000000*%
%TD*%
%TA.AperFunction,SMDPad,CuDef*%
%ADD23R,0.800000X1.000000*%
%TD*%
%TA.AperFunction,ComponentPad*%
%ADD24O,1.600000X1.000000*%
%TD*%
%TA.AperFunction,ComponentPad*%
%ADD25O,2.100000X1.000000*%
%TD*%
%TA.AperFunction,SMDPad,CuDef*%
%ADD26R,1.150000X0.300000*%
%TD*%
%TA.AperFunction,ComponentPad*%
%ADD27C,2.540000*%
%TD*%
%TA.AperFunction,SMDPad,CuDef*%
%ADD28R,0.480000X0.630000*%
%TD*%
%TA.AperFunction,SMDPad,CuDef*%
%ADD29RoundRect,0.150000X-0.150000X0.512500X-0.150000X-0.512500X0.150000X-0.512500X0.150000X0.512500X0*%
%TD*%
%TA.AperFunction,SMDPad,CuDef*%
%ADD30R,2.300000X0.700000*%
%TD*%
%TA.AperFunction,SMDPad,CuDef*%
%ADD31R,0.650000X1.525000*%
%TD*%
%TA.AperFunction,ViaPad*%
%ADD32C,0.457200*%
%TD*%
%TA.AperFunction,Conductor*%
%ADD33C,0.127000*%
%TD*%
G04 APERTURE END LIST*
D10*
%TO.P,J8,15,Pin_15*%
%TO.N,unconnected-(J8-Pin_15-Pad15)*%
X174000000Y-127050000D03*
X171510000Y-127050000D03*
%TO.P,J8,14,Pin_14*%
%TO.N,unconnected-(J8-Pin_14-Pad14)*%
X168970000Y-127050000D03*
%TO.P,J8,13,Pin_13*%
%TO.N,unconnected-(J8-Pin_13-Pad13)*%
X166430000Y-127050000D03*
%TO.P,J8,12,Pin_12*%
%TO.N,/LPUART_RTS*%
X163890000Y-127050000D03*
%TO.P,J8,11,Pin_11*%
%TO.N,/LPUART_RX*%
X161350000Y-127050000D03*
%TO.P,J8,10,Pin_10*%
%TO.N,/LPUART_TX*%
X158810000Y-127050000D03*
%TO.P,J8,9,Pin_9*%
%TO.N,/LPUART_CTS*%
X156270000Y-127050000D03*
%TO.P,J8,8,Pin_8*%
%TO.N,/BOOT0*%
X153730000Y-127050000D03*
%TO.P,J8,7,Pin_7*%
%TO.N,unconnected-(J8-Pin_7-Pad7)*%
X151190000Y-127050000D03*
%TO.P,J8,6,Pin_6*%
%TO.N,unconnected-(J8-Pin_6-Pad6)*%
X148650000Y-127050000D03*
%TO.P,J8,5,Pin_5*%
%TO.N,unconnected-(J8-Pin_5-Pad5)*%
X146110000Y-127050000D03*
%TO.P,J8,4,Pin_4*%
%TO.N,unconnected-(J8-Pin_4-Pad4)*%
X143570000Y-127050000D03*
%TO.P,J8,3,Pin_3*%
%TO.N,unconnected-(J8-Pin_3-Pad3)*%
X141030000Y-127050000D03*
%TO.P,J8,2,Pin_2*%
%TO.N,unconnected-(J8-Pin_2-Pad2)*%
X138490000Y-127050000D03*
%TO.P,J8,1,Pin_1*%
%TO.N,unconnected-(J8-Pin_1-Pad1)*%
X135950000Y-127050000D03*
%TD*%
%TO.P,J9,15,Pin_15*%
%TO.N,unconnected-(J9-Pin_15-Pad15)*%
X174000000Y-88950000D03*
X171510000Y-88950000D03*
%TO.P,J9,14,Pin_14*%
%TO.N,unconnected-(J9-Pin_14-Pad14)*%
X168970000Y-88950000D03*
%TO.P,J9,13,Pin_13*%
%TO.N,unconnected-(J9-Pin_13-Pad13)*%
X166430000Y-88950000D03*
%TO.P,J9,12,Pin_12*%
%TO.N,/USART1_RTS*%
X163890000Y-88950000D03*
%TO.P,J9,11,Pin_11*%
%TO.N,/USART1_RX*%
X161350000Y-88950000D03*
%TO.P,J9,10,Pin_10*%
%TO.N,/USART1_TX*%
X158810000Y-88950000D03*
%TO.P,J9,9,Pin_9*%
%TO.N,/USART1_CTS*%
X156270000Y-88950000D03*
%TO.P,J9,8,Pin_8*%
%TO.N,/USART1_CK*%
X153730000Y-88950000D03*
%TO.P,J9,7,Pin_7*%
%TO.N,/NRST*%
X151190000Y-88950000D03*
%TO.P,J9,6,Pin_6*%
%TO.N,unconnected-(J9-Pin_6-Pad6)*%
X148650000Y-88950000D03*
%TO.P,J9,5,Pin_5*%
%TO.N,unconnected-(J9-Pin_5-Pad5)*%
X146110000Y-88950000D03*
%TO.P,J9,4,Pin_4*%
%TO.N,unconnected-(J9-Pin_4-Pad4)*%
X143570000Y-88950000D03*
%TO.P,J9,3,Pin_3*%
%TO.N,GND*%
X141030000Y-88950000D03*
%TO.P,J9,2,Pin_2*%
%TO.N,unconnected-(J9-Pin_2-Pad2)*%
X138490000Y-88950000D03*
%TO.P,J9,1,Pin_1*%
%TO.N,unconnected-(J9-Pin_1-Pad1)*%
X135950000Y-88950000D03*
%TD*%
D11*
%TO.P,C15,2*%
%TO.N,/VDD_FILT*%
X168000000Y-122000000D03*
%TO.P,C15,1*%
%TO.N,GND*%
X168000000Y-120600000D03*
%TD*%
%TO.P,C11,2*%
%TO.N,/VDD_FILT*%
X165000000Y-122800000D03*
%TO.P,C11,1*%
%TO.N,GND*%
X165000000Y-124200000D03*
%TD*%
D12*
%TO.P,R6,2*%
%TO.N,Net-(IC3-PH3-BOOT0)*%
X154500000Y-123200000D03*
%TO.P,R6,1*%
%TO.N,/BOOT0*%
X154500000Y-124800000D03*
%TD*%
%TO.P,R1,2*%
%TO.N,Net-(LED1-A)*%
X146000000Y-120800000D03*
%TO.P,R1,1*%
%TO.N,/LED1*%
X146000000Y-119200000D03*
%TD*%
D11*
%TO.P,C8,2*%
%TO.N,GND*%
X168000000Y-119200000D03*
%TO.P,C8,1*%
%TO.N,Net-(IC3-PC14-OSC32_IN)*%
X168000000Y-117800000D03*
%TD*%
D13*
%TO.P,C17,2*%
%TO.N,GND*%
X160800000Y-91000000D03*
%TO.P,C17,1*%
%TO.N,/VDD_FILT*%
X162200000Y-91000000D03*
%TD*%
D10*
%TO.P,J1,5,Pin_5*%
%TO.N,unconnected-(J1-Pin_5-Pad5)*%
X174070000Y-91190000D03*
%TO.P,J1,4,Pin_4*%
%TO.N,unconnected-(J1-Pin_4-Pad4)*%
X174070000Y-93730000D03*
%TO.P,J1,3,Pin_3*%
%TO.N,GND*%
X174070000Y-96270000D03*
%TO.P,J1,2,Pin_2*%
%TO.N,unconnected-(J1-Pin_2-Pad2)*%
X174070000Y-98810000D03*
%TD*%
D14*
%TO.P,C1,2*%
%TO.N,GND*%
X159500000Y-123800000D03*
%TO.P,C1,1*%
%TO.N,Net-(IC1-A1{slash}K2)*%
X159500000Y-119200000D03*
%TD*%
D15*
%TO.P,IC3,100,VDD_5*%
%TO.N,/VDD_FILT*%
X161000000Y-115738000D03*
%TO.P,IC3,99,VSS_5*%
%TO.N,GND*%
X160500000Y-115738000D03*
%TO.P,IC3,98,PE1*%
%TO.N,unconnected-(IC3-PE1-Pad98)*%
X160000000Y-115738000D03*
%TO.P,IC3,97,PE0*%
%TO.N,unconnected-(IC3-PE0-Pad97)*%
X159500000Y-115738000D03*
%TO.P,IC3,96,PB9*%
%TO.N,/DCMI_D7*%
X159000000Y-115738000D03*
%TO.P,IC3,95,PB8*%
%TO.N,/DCMI_D6*%
X158500000Y-115738000D03*
%TO.P,IC3,94,PH3-BOOT0*%
%TO.N,Net-(IC3-PH3-BOOT0)*%
X158000000Y-115738000D03*
%TO.P,IC3,93,PB7*%
%TO.N,/DCMI_VSYNC*%
X157500000Y-115738000D03*
%TO.P,IC3,92,PB6*%
%TO.N,/DCMI_D5*%
X157000000Y-115738000D03*
%TO.P,IC3,91,PB5*%
%TO.N,unconnected-(IC3-PB5-Pad91)*%
X156500000Y-115738000D03*
%TO.P,IC3,90,PB4*%
%TO.N,/I2C3_SDA*%
X156000000Y-115738000D03*
%TO.P,IC3,89,PB3*%
%TO.N,unconnected-(IC3-PB3-Pad89)*%
X155500000Y-115738000D03*
%TO.P,IC3,88,PD7*%
%TO.N,unconnected-(IC3-PD7-Pad88)*%
X155000000Y-115738000D03*
%TO.P,IC3,87,PD6*%
%TO.N,unconnected-(IC3-PD6-Pad87)*%
X154500000Y-115738000D03*
%TO.P,IC3,86,PD5*%
%TO.N,unconnected-(IC3-PD5-Pad86)*%
X154000000Y-115738000D03*
%TO.P,IC3,85,PD4*%
%TO.N,unconnected-(IC3-PD4-Pad85)*%
X153500000Y-115738000D03*
%TO.P,IC3,84,PD3*%
%TO.N,unconnected-(IC3-PD3-Pad84)*%
X153000000Y-115738000D03*
%TO.P,IC3,83,PD2*%
%TO.N,unconnected-(IC3-PD2-Pad83)*%
X152500000Y-115738000D03*
%TO.P,IC3,82,PD1*%
%TO.N,/LED2*%
X152000000Y-115738000D03*
%TO.P,IC3,81,PD0*%
%TO.N,/LED1*%
X151500000Y-115738000D03*
%TO.P,IC3,80,PC12*%
%TO.N,/DCMI_D9*%
X151000000Y-115738000D03*
%TO.P,IC3,79,PC11*%
%TO.N,/DCMI_D4*%
X150500000Y-115738000D03*
%TO.P,IC3,78,PC10*%
%TO.N,/DCMI_D8*%
X150000000Y-115738000D03*
%TO.P,IC3,77,PA15*%
%TO.N,unconnected-(IC3-PA15-Pad77)*%
X149500000Y-115738000D03*
%TO.P,IC3,76,PA14*%
%TO.N,/SWCLK*%
X149000000Y-115738000D03*
D16*
%TO.P,IC3,75,VDD_4*%
%TO.N,/VDD_FILT*%
X147262000Y-114000000D03*
%TO.P,IC3,74,VSS_4*%
%TO.N,GND*%
X147262000Y-113500000D03*
%TO.P,IC3,73,VDDUSB*%
%TO.N,/VDD_FILT*%
X147262000Y-113000000D03*
%TO.P,IC3,72,PA13*%
%TO.N,/SWDIO*%
X147262000Y-112500000D03*
%TO.P,IC3,71,PA12*%
%TO.N,/D+*%
X147262000Y-112000000D03*
%TO.P,IC3,70,PA11*%
%TO.N,/D-*%
X147262000Y-111500000D03*
%TO.P,IC3,69,PA10*%
%TO.N,/USART1_RX*%
X147262000Y-111000000D03*
%TO.P,IC3,68,PA9*%
%TO.N,/USART1_TX*%
X147262000Y-110500000D03*
%TO.P,IC3,67,PA8*%
%TO.N,/USART1_CK*%
X147262000Y-110000000D03*
%TO.P,IC3,66,PC9*%
%TO.N,/DCMI_D3*%
X147262000Y-109500000D03*
%TO.P,IC3,65,PC8*%
%TO.N,/DCMI_D2*%
X147262000Y-109000000D03*
%TO.P,IC3,64,PC7*%
%TO.N,unconnected-(IC3-PC7-Pad64)*%
X147262000Y-108500000D03*
%TO.P,IC3,63,PC6*%
%TO.N,unconnected-(IC3-PC6-Pad63)*%
X147262000Y-108000000D03*
%TO.P,IC3,62,PD15*%
%TO.N,unconnected-(IC3-PD15-Pad62)*%
X147262000Y-107500000D03*
%TO.P,IC3,61,PD14*%
%TO.N,unconnected-(IC3-PD14-Pad61)*%
X147262000Y-107000000D03*
%TO.P,IC3,60,PD13*%
%TO.N,unconnected-(IC3-PD13-Pad60)*%
X147262000Y-106500000D03*
%TO.P,IC3,59,PD12*%
%TO.N,unconnected-(IC3-PD12-Pad59)*%
X147262000Y-106000000D03*
%TO.P,IC3,58,PD11*%
%TO.N,unconnected-(IC3-PD11-Pad58)*%
X147262000Y-105500000D03*
%TO.P,IC3,57,PD10*%
%TO.N,unconnected-(IC3-PD10-Pad57)*%
X147262000Y-105000000D03*
%TO.P,IC3,56,PD9*%
%TO.N,unconnected-(IC3-PD9-Pad56)*%
X147262000Y-104500000D03*
%TO.P,IC3,55,PD8*%
%TO.N,unconnected-(IC3-PD8-Pad55)*%
X147262000Y-104000000D03*
%TO.P,IC3,54,PB15*%
%TO.N,unconnected-(IC3-PB15-Pad54)*%
X147262000Y-103500000D03*
%TO.P,IC3,53,PB14*%
%TO.N,unconnected-(IC3-PB14-Pad53)*%
X147262000Y-103000000D03*
%TO.P,IC3,52,PB13*%
%TO.N,/LPUART_CTS*%
X147262000Y-102500000D03*
%TO.P,IC3,51,PB12*%
%TO.N,/LPUART_RTS*%
X147262000Y-102000000D03*
D15*
%TO.P,IC3,50,VDD_3*%
%TO.N,/VDD_FILT*%
X149000000Y-100262000D03*
%TO.P,IC3,49,VSS_3*%
%TO.N,GND*%
X149500000Y-100262000D03*
%TO.P,IC3,48,PB11*%
%TO.N,/LPUART_TX*%
X150000000Y-100262000D03*
%TO.P,IC3,47,PB10*%
%TO.N,/LPUART_RX*%
X150500000Y-100262000D03*
%TO.P,IC3,46,PE15*%
%TO.N,unconnected-(IC3-PE15-Pad46)*%
X151000000Y-100262000D03*
%TO.P,IC3,45,PE14*%
%TO.N,unconnected-(IC3-PE14-Pad45)*%
X151500000Y-100262000D03*
%TO.P,IC3,44,PE13*%
%TO.N,unconnected-(IC3-PE13-Pad44)*%
X152000000Y-100262000D03*
%TO.P,IC3,43,PE12*%
%TO.N,unconnected-(IC3-PE12-Pad43)*%
X152500000Y-100262000D03*
%TO.P,IC3,42,PE11*%
%TO.N,unconnected-(IC3-PE11-Pad42)*%
X153000000Y-100262000D03*
%TO.P,IC3,41,PE10*%
%TO.N,unconnected-(IC3-PE10-Pad41)*%
X153500000Y-100262000D03*
%TO.P,IC3,40,PE9*%
%TO.N,unconnected-(IC3-PE9-Pad40)*%
X154000000Y-100262000D03*
%TO.P,IC3,39,PE8*%
%TO.N,unconnected-(IC3-PE8-Pad39)*%
X154500000Y-100262000D03*
%TO.P,IC3,38,PE7*%
%TO.N,unconnected-(IC3-PE7-Pad38)*%
X155000000Y-100262000D03*
%TO.P,IC3,37,PB2*%
%TO.N,unconnected-(IC3-PB2-Pad37)*%
X155500000Y-100262000D03*
%TO.P,IC3,36,PB1*%
%TO.N,unconnected-(IC3-PB1-Pad36)*%
X156000000Y-100262000D03*
%TO.P,IC3,35,PB0*%
%TO.N,unconnected-(IC3-PB0-Pad35)*%
X156500000Y-100262000D03*
%TO.P,IC3,34,PC5*%
%TO.N,unconnected-(IC3-PC5-Pad34)*%
X157000000Y-100262000D03*
%TO.P,IC3,33,PC4*%
%TO.N,/QUADSPI_BK2_IO3*%
X157500000Y-100262000D03*
%TO.P,IC3,32,PA7*%
%TO.N,unconnected-(IC3-PA7-Pad32)*%
X158000000Y-100262000D03*
%TO.P,IC3,31,PA6*%
%TO.N,/DCMI_PIXCLK*%
X158500000Y-100262000D03*
%TO.P,IC3,30,PA5*%
%TO.N,unconnected-(IC3-PA5-Pad30)*%
X159000000Y-100262000D03*
%TO.P,IC3,29,PA4*%
%TO.N,/DCMI_HSYNC*%
X159500000Y-100262000D03*
%TO.P,IC3,28,VDD_2*%
%TO.N,/VDD_FILT*%
X160000000Y-100262000D03*
%TO.P,IC3,27,VSS_2*%
%TO.N,GND*%
X160500000Y-100262000D03*
%TO.P,IC3,26,PA3*%
%TO.N,/QUADSPI_CLK*%
X161000000Y-100262000D03*
D16*
%TO.P,IC3,25,PA2*%
%TO.N,/QUADSPI_BK1_NCS*%
X162738000Y-102000000D03*
%TO.P,IC3,24,PA1*%
%TO.N,unconnected-(IC3-PA1-Pad24)*%
X162738000Y-102500000D03*
%TO.P,IC3,23,PA0*%
%TO.N,unconnected-(IC3-PA0-Pad23)*%
X162738000Y-103000000D03*
%TO.P,IC3,22,VDDA*%
%TO.N,/VDD_FILT*%
X162738000Y-103500000D03*
%TO.P,IC3,21,VREF+*%
X162738000Y-104000000D03*
%TO.P,IC3,20,VREF-*%
%TO.N,GND*%
X162738000Y-104500000D03*
%TO.P,IC3,19,VSSA*%
X162738000Y-105000000D03*
%TO.P,IC3,18,PC3*%
%TO.N,/QUADSPI_BK2_IO2*%
X162738000Y-105500000D03*
%TO.P,IC3,17,PC2*%
%TO.N,/QUADSPI_BK2_IO1*%
X162738000Y-106000000D03*
%TO.P,IC3,16,PC1*%
%TO.N,/QUADSPI_BK2_IO0*%
X162738000Y-106500000D03*
%TO.P,IC3,15,PC0*%
%TO.N,/I2C3_SCL*%
X162738000Y-107000000D03*
%TO.P,IC3,14,NRST*%
%TO.N,/NRST*%
X162738000Y-107500000D03*
%TO.P,IC3,13,PH1-OSC_OUT*%
%TO.N,Net-(IC3-PH1-OSC_OUT)*%
X162738000Y-108000000D03*
%TO.P,IC3,12,PH0-OSC_IN*%
%TO.N,Net-(IC3-PH0-OSC_IN)*%
X162738000Y-108500000D03*
%TO.P,IC3,11,VDD_1*%
%TO.N,/VDD_FILT*%
X162738000Y-109000000D03*
%TO.P,IC3,10,VSS_1*%
%TO.N,GND*%
X162738000Y-109500000D03*
%TO.P,IC3,9,PC15-OSC32_OUT*%
%TO.N,Net-(IC3-PC15-OSC32_OUT)*%
X162738000Y-110000000D03*
%TO.P,IC3,8,PC14-OSC32_IN*%
%TO.N,Net-(IC3-PC14-OSC32_IN)*%
X162738000Y-110500000D03*
%TO.P,IC3,7,PC13*%
%TO.N,unconnected-(IC3-PC13-Pad7)*%
X162738000Y-111000000D03*
%TO.P,IC3,6,VBAT*%
%TO.N,/V_BAT*%
X162738000Y-111500000D03*
%TO.P,IC3,5,PE6*%
%TO.N,/LDO_OUT*%
X162738000Y-112000000D03*
%TO.P,IC3,4,PE5*%
%TO.N,/Control*%
X162738000Y-112500000D03*
%TO.P,IC3,3,PE4*%
%TO.N,unconnected-(IC3-PE4-Pad3)*%
X162738000Y-113000000D03*
%TO.P,IC3,2,PE3*%
%TO.N,unconnected-(IC3-PE3-Pad2)*%
X162738000Y-113500000D03*
%TO.P,IC3,1,PE2*%
%TO.N,unconnected-(IC3-PE2-Pad1)*%
X162738000Y-114000000D03*
%TD*%
D10*
%TO.P,J2,4,Pin_4*%
%TO.N,unconnected-(J2-Pin_4-Pad4)*%
X135950000Y-91920000D03*
%TO.P,J2,3,Pin_3*%
%TO.N,unconnected-(J2-Pin_3-Pad3)*%
X135950000Y-94460000D03*
%TO.P,J2,2,Pin_2*%
%TO.N,GND*%
X135950000Y-97000000D03*
%TO.P,J2,1,Pin_1*%
%TO.N,unconnected-(J2-Pin_1-Pad1)*%
X135950000Y-99540000D03*
%TD*%
%TO.P,J7,4,Pin_4*%
%TO.N,/SWCLK*%
X135950000Y-124510000D03*
%TO.P,J7,3,Pin_3*%
%TO.N,/SWDIO*%
X135950000Y-121970000D03*
%TO.P,J7,2,Pin_2*%
%TO.N,GND*%
X135950000Y-119430000D03*
%TO.P,J7,1,Pin_1*%
%TO.N,VDD*%
X135950000Y-116890000D03*
%TD*%
D11*
%TO.P,C10,2*%
%TO.N,GND*%
X153500000Y-94200000D03*
%TO.P,C10,1*%
%TO.N,/NRST*%
X153500000Y-92800000D03*
%TD*%
D17*
%TO.P,IC4,8,VCC*%
%TO.N,/VDD_FILT*%
X162532000Y-93095000D03*
%TO.P,IC4,7,HOLD#_OR__RESET#(IO3)*%
%TO.N,/QUADSPI_BK2_IO3*%
X162532000Y-94365000D03*
%TO.P,IC4,6,SCK*%
%TO.N,/QUADSPI_CLK*%
X162532000Y-95635000D03*
%TO.P,IC4,5,SI(IO0)*%
%TO.N,/QUADSPI_BK2_IO0*%
X162532000Y-96905000D03*
%TO.P,IC4,4,GND*%
%TO.N,GND*%
X155468000Y-96905000D03*
%TO.P,IC4,3,WP#(IO2)*%
%TO.N,/QUADSPI_BK2_IO2*%
X155468000Y-95635000D03*
%TO.P,IC4,2,SO(IO1)*%
%TO.N,/QUADSPI_BK2_IO1*%
X155468000Y-94365000D03*
%TO.P,IC4,1,CE#*%
%TO.N,/QUADSPI_BK1_NCS*%
X155468000Y-93095000D03*
%TD*%
D18*
%TO.P,C5,2*%
%TO.N,GND*%
X165000000Y-98600000D03*
%TO.P,C5,1*%
%TO.N,/VDD_FILT*%
X165000000Y-100000000D03*
%TD*%
D11*
%TO.P,C19,2*%
%TO.N,GND*%
X146000000Y-90800000D03*
%TO.P,C19,1*%
%TO.N,/LDO_OUT*%
X146000000Y-92200000D03*
%TD*%
%TO.P,C18,2*%
%TO.N,/VBUS*%
X143500000Y-92200000D03*
%TO.P,C18,1*%
%TO.N,GND*%
X143500000Y-90800000D03*
%TD*%
D13*
%TO.P,C6,2*%
%TO.N,GND*%
X167700000Y-110000000D03*
%TO.P,C6,1*%
%TO.N,Net-(IC3-PH0-OSC_IN)*%
X166300000Y-110000000D03*
%TD*%
D19*
%TO.P,LED1,2,A*%
%TO.N,Net-(LED1-A)*%
X146000000Y-122750000D03*
%TO.P,LED1,1,K*%
%TO.N,GND*%
X146000000Y-124250000D03*
%TD*%
D20*
%TO.P,Y1,4,GND_2*%
%TO.N,GND*%
X165500000Y-105550000D03*
%TO.P,Y1,3,CRYSTAL_2*%
%TO.N,Net-(IC3-PH1-OSC_OUT)*%
X167800000Y-105550000D03*
%TO.P,Y1,2,GND_1*%
%TO.N,GND*%
X167800000Y-107450000D03*
%TO.P,Y1,1,CRYSTAL_1*%
%TO.N,Net-(IC3-PH0-OSC_IN)*%
X165500000Y-107450000D03*
%TD*%
D11*
%TO.P,C3,2*%
%TO.N,GND*%
X168000000Y-102300000D03*
%TO.P,C3,1*%
%TO.N,Net-(IC3-PH1-OSC_OUT)*%
X168000000Y-103700000D03*
%TD*%
D21*
%TO.P,FB1,2,2*%
%TO.N,/VDD_FILT*%
X139800000Y-116850000D03*
%TO.P,FB1,1,1*%
%TO.N,VDD*%
X138200000Y-116850000D03*
%TD*%
D11*
%TO.P,C9,2*%
%TO.N,GND*%
X167000000Y-95600000D03*
%TO.P,C9,1*%
%TO.N,/VDD_FILT*%
X167000000Y-97000000D03*
%TD*%
%TO.P,C13,2*%
%TO.N,GND*%
X165000000Y-120300000D03*
%TO.P,C13,1*%
%TO.N,/VDD_FILT*%
X165000000Y-121700000D03*
%TD*%
D22*
%TO.P,Y2,2,2*%
%TO.N,Net-(IC3-PC15-OSC32_OUT)*%
X167000000Y-112950000D03*
%TO.P,Y2,1,1*%
%TO.N,Net-(IC3-PC14-OSC32_IN)*%
X167000000Y-115500000D03*
%TD*%
D23*
%TO.P,R7,2*%
%TO.N,/QUADSPI_BK1_NCS*%
X156700000Y-91000000D03*
%TO.P,R7,1*%
%TO.N,/VDD_FILT*%
X158300000Y-91000000D03*
%TD*%
D19*
%TO.P,LED2,2,A*%
%TO.N,Net-(LED2-A)*%
X143500000Y-122750000D03*
%TO.P,LED2,1,K*%
%TO.N,GND*%
X143500000Y-124250000D03*
%TD*%
D11*
%TO.P,C14,2*%
%TO.N,/VDD_FILT*%
X166500000Y-122800000D03*
%TO.P,C14,1*%
%TO.N,GND*%
X166500000Y-124200000D03*
%TD*%
D12*
%TO.P,R8,2*%
%TO.N,Net-(J3-CC1)*%
X139000000Y-101300000D03*
%TO.P,R8,1*%
%TO.N,GND*%
X139000000Y-99700000D03*
%TD*%
%TO.P,R4,2*%
%TO.N,Net-(IC2-G)*%
X150500000Y-123300000D03*
%TO.P,R4,1*%
%TO.N,/Control*%
X150500000Y-121700000D03*
%TD*%
D24*
%TO.P,J3,S1,SHIELD*%
%TO.N,unconnected-(J3-SHIELD-PadS1)*%
X135425000Y-112320000D03*
D25*
X139605000Y-112320000D03*
D24*
X135425000Y-103680000D03*
D25*
X139605000Y-103680000D03*
D26*
%TO.P,J3,B12,GND*%
%TO.N,GND*%
X140170000Y-104950000D03*
%TO.P,J3,B9,VBUS*%
%TO.N,/VBUS*%
X140170000Y-105750000D03*
%TO.P,J3,B8,SBU2*%
%TO.N,unconnected-(J3-SBU2-PadB8)*%
X140170000Y-106250000D03*
%TO.P,J3,B7,D-*%
%TO.N,/D-*%
X140170000Y-107250000D03*
%TO.P,J3,B6,D+*%
%TO.N,/D+*%
X140170000Y-108750000D03*
%TO.P,J3,B5,CC2*%
%TO.N,Net-(J3-CC2)*%
X140170000Y-109750000D03*
%TO.P,J3,B4,VBUS*%
%TO.N,/VBUS*%
X140170000Y-110250000D03*
%TO.P,J3,B1,GND*%
%TO.N,GND*%
X140170000Y-111050000D03*
%TO.P,J3,A12,GND*%
X140170000Y-111350000D03*
%TO.P,J3,A9,VBUS*%
%TO.N,/VBUS*%
X140170000Y-110550000D03*
%TO.P,J3,A8,SBU1*%
%TO.N,unconnected-(J3-SBU1-PadA8)*%
X140170000Y-109250000D03*
%TO.P,J3,A7,D-*%
%TO.N,/D-*%
X140170000Y-108250000D03*
%TO.P,J3,A6,D+*%
%TO.N,/D+*%
X140170000Y-107750000D03*
%TO.P,J3,A5,CC1*%
%TO.N,Net-(J3-CC1)*%
X140170000Y-106750000D03*
%TO.P,J3,A4,VBUS*%
%TO.N,/VBUS*%
X140170000Y-105450000D03*
%TO.P,J3,A1,GND*%
%TO.N,GND*%
X140170000Y-104650000D03*
%TD*%
D11*
%TO.P,C7,2*%
%TO.N,GND*%
X165000000Y-95600000D03*
%TO.P,C7,1*%
%TO.N,/VDD_FILT*%
X165000000Y-97000000D03*
%TD*%
D27*
%TO.P,J6,4,Pin_4*%
%TO.N,GND*%
X171000000Y-124000000D03*
%TO.P,J6,3,Pin_3*%
X139000000Y-124000000D03*
%TO.P,J6,2,Pin_2*%
X171000000Y-92000000D03*
%TO.P,J6,1,Pin_1*%
X139000000Y-92000000D03*
%TD*%
D12*
%TO.P,R3,2*%
%TO.N,/LDO_OUT*%
X150500000Y-118500000D03*
%TO.P,R3,1*%
%TO.N,Net-(IC1-K1)*%
X150500000Y-120100000D03*
%TD*%
D11*
%TO.P,C12,2*%
%TO.N,GND*%
X167000000Y-98600000D03*
%TO.P,C12,1*%
%TO.N,/VDD_FILT*%
X167000000Y-100000000D03*
%TD*%
D23*
%TO.P,R9,2*%
%TO.N,Net-(J3-CC2)*%
X141470000Y-114500000D03*
%TO.P,R9,1*%
%TO.N,GND*%
X143070000Y-114500000D03*
%TD*%
D11*
%TO.P,C4,2*%
%TO.N,GND*%
X169500000Y-119200000D03*
%TO.P,C4,1*%
%TO.N,Net-(IC3-PC15-OSC32_OUT)*%
X169500000Y-117800000D03*
%TD*%
D28*
%TO.P,IC1,3,A1/K2*%
%TO.N,Net-(IC1-A1{slash}K2)*%
X154500000Y-119755000D03*
%TO.P,IC1,2,K1*%
%TO.N,Net-(IC1-K1)*%
X154000000Y-118245000D03*
%TO.P,IC1,1,A2*%
%TO.N,/V_BAT*%
X155000000Y-118245000D03*
%TD*%
D12*
%TO.P,R5,2*%
%TO.N,GND*%
X152500000Y-124800000D03*
%TO.P,R5,1*%
%TO.N,Net-(IC3-PH3-BOOT0)*%
X152500000Y-123200000D03*
%TD*%
D29*
%TO.P,U1,5,OUT*%
%TO.N,/LDO_OUT*%
X145450000Y-96637500D03*
%TO.P,U1,4,NC*%
%TO.N,unconnected-(U1-NC-Pad4)*%
X143550000Y-96637500D03*
%TO.P,U1,3,EN*%
%TO.N,/VBUS*%
X143550000Y-94362500D03*
%TO.P,U1,2,GND*%
%TO.N,GND*%
X144500000Y-94362500D03*
%TO.P,U1,1,IN*%
%TO.N,/VBUS*%
X145450000Y-94362500D03*
%TD*%
D30*
%TO.P,J5,18,18*%
%TO.N,GND*%
X175500000Y-103000000D03*
%TO.P,J5,17,17*%
%TO.N,/VDD_FILT*%
X171150000Y-103000000D03*
%TO.P,J5,16,16*%
%TO.N,/I2C3_SDA*%
X175500000Y-104250000D03*
%TO.P,J5,15,15*%
%TO.N,/I2C3_SCL*%
X171150000Y-104250000D03*
%TO.P,J5,14,14*%
%TO.N,/DCMI_HSYNC*%
X175500000Y-105500000D03*
%TO.P,J5,13,13*%
%TO.N,/DCMI_VSYNC*%
X171150000Y-105500000D03*
%TO.P,J5,12,12*%
%TO.N,unconnected-(J5-Pad12)*%
X175500000Y-106750000D03*
%TO.P,J5,11,11*%
%TO.N,/DCMI_PIXCLK*%
X171150000Y-106750000D03*
%TO.P,J5,10,10*%
%TO.N,/DCMI_D8*%
X175500000Y-108000000D03*
%TO.P,J5,9,9*%
%TO.N,/DCMI_D9*%
X171150000Y-108000000D03*
%TO.P,J5,8,8*%
%TO.N,/DCMI_D6*%
X175500000Y-109250000D03*
%TO.P,J5,7,7*%
%TO.N,/DCMI_D7*%
X171150000Y-109250000D03*
%TO.P,J5,6,6*%
%TO.N,/DCMI_D4*%
X175500000Y-110500000D03*
%TO.P,J5,5,5*%
%TO.N,/DCMI_D5*%
X171150000Y-110500000D03*
%TO.P,J5,4,4*%
%TO.N,/DCMI_D2*%
X175500000Y-111750000D03*
%TO.P,J5,3,3*%
%TO.N,/DCMI_D3*%
X171150000Y-111750000D03*
%TO.P,J5,2,2*%
%TO.N,unconnected-(J5-Pad2)*%
X175500000Y-113000000D03*
%TO.P,J5,1,1*%
%TO.N,unconnected-(J5-Pad1)*%
X171150000Y-113000000D03*
%TD*%
D31*
%TO.P,IC2,8,D_4*%
%TO.N,/LDO_OUT*%
X148095000Y-91288000D03*
%TO.P,IC2,7,D_3*%
X149365000Y-91288000D03*
%TO.P,IC2,6,D_2*%
X150635000Y-91288000D03*
%TO.P,IC2,5,D_1*%
X151905000Y-91288000D03*
%TO.P,IC2,4,G*%
%TO.N,Net-(IC2-G)*%
X151905000Y-96712000D03*
%TO.P,IC2,3,S_3*%
%TO.N,/VDD_FILT*%
X150635000Y-96712000D03*
%TO.P,IC2,2,S_2*%
X149365000Y-96712000D03*
%TO.P,IC2,1,S_1*%
X148095000Y-96712000D03*
%TD*%
D11*
%TO.P,C16,2*%
%TO.N,/VDD_FILT*%
X166500000Y-121700000D03*
%TO.P,C16,1*%
%TO.N,GND*%
X166500000Y-120300000D03*
%TD*%
D12*
%TO.P,R2,2*%
%TO.N,Net-(LED2-A)*%
X143500000Y-120800000D03*
%TO.P,R2,1*%
%TO.N,/LED2*%
X143500000Y-119200000D03*
%TD*%
D13*
%TO.P,C2,2*%
%TO.N,GND*%
X138300000Y-119400000D03*
%TO.P,C2,1*%
%TO.N,/VDD_FILT*%
X139700000Y-119400000D03*
%TD*%
D10*
%TO.P,J4,5,Pin_5*%
%TO.N,unconnected-(J4-Pin_5-Pad5)*%
X174070000Y-124540000D03*
%TO.P,J4,4,Pin_4*%
%TO.N,unconnected-(J4-Pin_4-Pad4)*%
X174070000Y-122000000D03*
%TO.P,J4,3,Pin_3*%
%TO.N,unconnected-(J4-Pin_3-Pad3)*%
X174070000Y-119460000D03*
%TO.P,J4,2,Pin_2*%
%TO.N,unconnected-(J4-Pin_2-Pad2)*%
X174070000Y-116920000D03*
%TD*%
D32*
%TO.N,GND*%
X144500000Y-113500000D03*
X138500000Y-98500000D03*
X160500000Y-117000000D03*
X167000000Y-119000000D03*
X176500000Y-102000000D03*
X168500000Y-101500000D03*
X151500000Y-125500000D03*
X170500000Y-119000000D03*
X147000000Y-124500000D03*
X160000000Y-90500000D03*
X160500000Y-99000000D03*
X144500000Y-95500000D03*
X145000000Y-90500000D03*
X163000000Y-124000000D03*
X142500000Y-124500000D03*
X153500000Y-95000000D03*
X161500000Y-104500000D03*
X142500000Y-90500000D03*
X164000000Y-120500000D03*
X165000000Y-104500000D03*
X168500000Y-108500000D03*
X141000000Y-104000000D03*
X166500000Y-98000000D03*
X157000000Y-97000000D03*
X166500000Y-95000000D03*
X149500000Y-99000000D03*
X165500000Y-95000000D03*
X164000000Y-105000000D03*
X146000000Y-113500000D03*
X164000000Y-109500000D03*
X165000000Y-111500000D03*
X165500000Y-98000000D03*
%TO.N,/VDD_FILT*%
X148500000Y-114000000D03*
X170500000Y-102000000D03*
X163000000Y-90000000D03*
X148000000Y-98000000D03*
X139500000Y-118500000D03*
X148500000Y-113000000D03*
X164000000Y-121500000D03*
X139500000Y-115500000D03*
X161000000Y-114500000D03*
X160000000Y-101500000D03*
X149000000Y-101500000D03*
X161500000Y-109000000D03*
X161500000Y-103500000D03*
%TO.N,/NRST*%
X152500000Y-93000000D03*
X160000000Y-107500000D03*
%TO.N,/LPUART_RX*%
X150500000Y-99000000D03*
X160500000Y-128500000D03*
%TO.N,/LPUART_RTS*%
X162500000Y-129500000D03*
X146500000Y-101500000D03*
%TO.N,/DCMI_D6*%
X176000000Y-109750000D03*
X158500000Y-114500000D03*
%TO.N,/DCMI_D2*%
X149500000Y-109000000D03*
X148500000Y-109000000D03*
X159500000Y-112000000D03*
X174000000Y-112500000D03*
%TO.N,/QUADSPI_BK2_IO1*%
X158500000Y-96500000D03*
X161500000Y-106000000D03*
%TO.N,/DCMI_D3*%
X173500000Y-109500000D03*
X146000000Y-109500000D03*
X160000000Y-112500000D03*
X150000000Y-109500000D03*
%TO.N,/DCMI_VSYNC*%
X157500000Y-114500000D03*
X173000000Y-105500000D03*
%TO.N,Net-(IC3-PH3-BOOT0)*%
X154500000Y-122500000D03*
X158000000Y-117000000D03*
%TO.N,/Control*%
X165000000Y-113500000D03*
%TO.N,/SWDIO*%
X144000000Y-112500000D03*
X146000000Y-112500000D03*
%TO.N,/DCMI_PIXCLK*%
X158500000Y-99000000D03*
X169500000Y-107500000D03*
%TO.N,/LED2*%
X143500000Y-118000000D03*
X146000000Y-117000000D03*
%TO.N,/D-*%
X144500000Y-111000000D03*
X146000000Y-111500000D03*
%TO.N,/LPUART_CTS*%
X146000000Y-102500000D03*
X155000000Y-130000000D03*
%TO.N,/USART1_RX*%
X162500000Y-89500000D03*
X148500000Y-111000000D03*
%TO.N,/DCMI_HSYNC*%
X173500000Y-106500000D03*
X159500000Y-99000000D03*
%TO.N,/QUADSPI_BK2_IO2*%
X161000000Y-105500000D03*
X158000000Y-97000000D03*
%TO.N,/DCMI_D4*%
X161000000Y-113500000D03*
X174000000Y-110500000D03*
%TO.N,/SWCLK*%
X149000000Y-117000000D03*
X145000000Y-116000000D03*
%TO.N,/USART1_CK*%
X152500000Y-89500000D03*
X148500000Y-110000000D03*
%TO.N,/D+*%
X148500000Y-112000000D03*
X144500000Y-112000000D03*
%TO.N,/DCMI_D7*%
X160000000Y-114500000D03*
X174000000Y-109000000D03*
%TO.N,/DCMI_D5*%
X157000000Y-117000000D03*
X175500000Y-114500000D03*
%TO.N,/QUADSPI_BK1_NCS*%
X163000000Y-101500000D03*
X158500000Y-95500000D03*
%TO.N,/USART1_TX*%
X146000000Y-110500000D03*
X157500000Y-88500000D03*
%TO.N,/LPUART_TX*%
X157500000Y-129000000D03*
X150000000Y-101500000D03*
%TO.N,/LED1*%
X147000000Y-117000000D03*
X145500000Y-118000000D03*
%TO.N,Net-(IC2-G)*%
X148000000Y-117000000D03*
X148000000Y-119000000D03*
%TO.N,/I2C3_SDA*%
X173000000Y-108000000D03*
X156000000Y-117000000D03*
%TO.N,/DCMI_D8*%
X174000000Y-108000000D03*
X160500000Y-113000000D03*
%TO.N,/I2C3_SCL*%
X169500000Y-104500000D03*
X164000000Y-106500000D03*
%TO.N,/DCMI_D9*%
X169500000Y-109000000D03*
X156500000Y-114000000D03*
%TO.N,Net-(J3-CC2)*%
X140500000Y-114500000D03*
%TO.N,Net-(J3-CC1)*%
X140500000Y-101500000D03*
X142000000Y-105000000D03*
%TO.N,Net-(J3-CC2)*%
X141500000Y-113000000D03*
%TO.N,GND*%
X141000000Y-111500000D03*
%TD*%
D33*
%TO.N,GND*%
X144070000Y-113500000D02*
X144500000Y-113500000D01*
X143070000Y-114500000D02*
X144070000Y-113500000D01*
X165500000Y-111000000D02*
X166700000Y-111000000D01*
X166700000Y-111000000D02*
X167700000Y-110000000D01*
%TO.N,Net-(IC3-PH0-OSC_IN)*%
X165500000Y-107450000D02*
X165500000Y-109500000D01*
X165500000Y-109500000D02*
X166000000Y-110000000D01*
X166000000Y-110000000D02*
X166300000Y-110000000D01*
%TO.N,GND*%
X165000000Y-98600000D02*
X165000000Y-98500000D01*
X167000000Y-98500000D02*
X166500000Y-98000000D01*
X165500000Y-111000000D02*
X165000000Y-111500000D01*
X164200000Y-120300000D02*
X164000000Y-120500000D01*
X146000000Y-124250000D02*
X146750000Y-124250000D01*
X142800000Y-90800000D02*
X142500000Y-90500000D01*
X166800000Y-120600000D02*
X166500000Y-120300000D01*
X167000000Y-98600000D02*
X167000000Y-98500000D01*
X147262000Y-113500000D02*
X146000000Y-113500000D01*
X168000000Y-120600000D02*
X166800000Y-120600000D01*
X167800000Y-119000000D02*
X168000000Y-119200000D01*
X170300000Y-119200000D02*
X170500000Y-119000000D01*
X146000000Y-90800000D02*
X145300000Y-90800000D01*
X160500000Y-100262000D02*
X160500000Y-99000000D01*
X167800000Y-107800000D02*
X168500000Y-108500000D01*
X142750000Y-124250000D02*
X142500000Y-124500000D01*
X162738000Y-104500000D02*
X161500000Y-104500000D01*
X159700000Y-124000000D02*
X159500000Y-123800000D01*
X166500000Y-95000000D02*
X167000000Y-95500000D01*
X165000000Y-95500000D02*
X165500000Y-95000000D01*
X165500000Y-105000000D02*
X165000000Y-104500000D01*
X143500000Y-90800000D02*
X142800000Y-90800000D01*
X144500000Y-94362500D02*
X144500000Y-95500000D01*
X163200000Y-124200000D02*
X163000000Y-124000000D01*
X160500000Y-117000000D02*
X160500000Y-115738000D01*
X139000000Y-99700000D02*
X139000000Y-99000000D01*
X167000000Y-95500000D02*
X167000000Y-95600000D01*
X165000000Y-95600000D02*
X165000000Y-95500000D01*
X149500000Y-99000000D02*
X149500000Y-100262000D01*
X160000000Y-90500000D02*
X160300000Y-90500000D01*
X146750000Y-124250000D02*
X147000000Y-124500000D01*
X165500000Y-105550000D02*
X165500000Y-105000000D01*
X165000000Y-120300000D02*
X164200000Y-120300000D01*
X162738000Y-109500000D02*
X164000000Y-109500000D01*
X152500000Y-124800000D02*
X152200000Y-124800000D01*
X165000000Y-124200000D02*
X163200000Y-124200000D01*
X143500000Y-124250000D02*
X142750000Y-124250000D01*
X165000000Y-98500000D02*
X165500000Y-98000000D01*
X168000000Y-102000000D02*
X168500000Y-101500000D01*
X168000000Y-102300000D02*
X168000000Y-102000000D01*
X153500000Y-94200000D02*
X153500000Y-95000000D01*
X138300000Y-119400000D02*
X135980000Y-119400000D01*
X166500000Y-124200000D02*
X165000000Y-124200000D01*
X163000000Y-124000000D02*
X159700000Y-124000000D01*
X169500000Y-119200000D02*
X170300000Y-119200000D01*
X152200000Y-124800000D02*
X151500000Y-125500000D01*
X135980000Y-119400000D02*
X135950000Y-119430000D01*
X167800000Y-107450000D02*
X167800000Y-107800000D01*
X167000000Y-119000000D02*
X167800000Y-119000000D01*
X166500000Y-120300000D02*
X165000000Y-120300000D01*
X145300000Y-90800000D02*
X145000000Y-90500000D01*
X162738000Y-105000000D02*
X164000000Y-105000000D01*
X160300000Y-90500000D02*
X160800000Y-91000000D01*
X139000000Y-99000000D02*
X138500000Y-98500000D01*
X155468000Y-96905000D02*
X156905000Y-96905000D01*
X156905000Y-96905000D02*
X157000000Y-97000000D01*
%TO.N,/VBUS*%
X143550000Y-93700001D02*
X143750001Y-93500000D01*
X145450000Y-93700001D02*
X145450000Y-94362500D01*
X145249999Y-93500000D02*
X145450000Y-93700001D01*
X143500000Y-92200000D02*
X143500000Y-94312500D01*
X143550000Y-94362500D02*
X143550000Y-93700001D01*
X143750001Y-93500000D02*
X145249999Y-93500000D01*
X143500000Y-94312500D02*
X143550000Y-94362500D01*
%TO.N,/LDO_OUT*%
X147183000Y-92200000D02*
X148095000Y-91288000D01*
X145450000Y-117072962D02*
X145450000Y-96637500D01*
X146877038Y-118500000D02*
X145450000Y-117072962D01*
X164000000Y-114500000D02*
X164000000Y-112397500D01*
X150500000Y-118500000D02*
X146877038Y-118500000D01*
X152500000Y-118500000D02*
X153559500Y-117440500D01*
X146000000Y-92200000D02*
X147183000Y-92200000D01*
X145450000Y-96637500D02*
X148095000Y-93992500D01*
X153559500Y-117440500D02*
X161059500Y-117440500D01*
X164000000Y-112397500D02*
X163602500Y-112000000D01*
X150500000Y-118500000D02*
X152500000Y-118500000D01*
X150635000Y-91288000D02*
X151905000Y-91288000D01*
X148095000Y-93992500D02*
X148095000Y-91288000D01*
X148095000Y-91288000D02*
X149365000Y-91288000D01*
X149365000Y-91288000D02*
X150635000Y-91288000D01*
X161059500Y-117440500D02*
X164000000Y-114500000D01*
X163602500Y-112000000D02*
X162738000Y-112000000D01*
%TO.N,/VDD_FILT*%
X163000000Y-90200000D02*
X162200000Y-91000000D01*
X170500000Y-102175000D02*
X171325000Y-103000000D01*
X170500000Y-102000000D02*
X170500000Y-102175000D01*
X149000000Y-101500000D02*
X149000000Y-100262000D01*
X161000000Y-114500000D02*
X161000000Y-115738000D01*
X148095000Y-97905000D02*
X148000000Y-98000000D01*
X165000000Y-100000000D02*
X164339500Y-99339500D01*
X167685500Y-99314500D02*
X167685500Y-97685500D01*
X162738000Y-109000000D02*
X161500000Y-109000000D01*
X147262000Y-113000000D02*
X148500000Y-113000000D01*
X163602500Y-103500000D02*
X162738000Y-103500000D01*
X165000000Y-121700000D02*
X164200000Y-121700000D01*
X167000000Y-100000000D02*
X167685500Y-99314500D01*
X160395000Y-93095000D02*
X158300000Y-91000000D01*
X139700000Y-116950000D02*
X139800000Y-116850000D01*
X139800000Y-116850000D02*
X139800000Y-115800000D01*
X165000000Y-102102500D02*
X163602500Y-103500000D01*
X162738000Y-104000000D02*
X163102500Y-104000000D01*
X164200000Y-121700000D02*
X164000000Y-121500000D01*
X167300000Y-122000000D02*
X166500000Y-122800000D01*
X168000000Y-122000000D02*
X167300000Y-122000000D01*
X148500000Y-114000000D02*
X147262000Y-114000000D01*
X139800000Y-115800000D02*
X139500000Y-115500000D01*
X165000000Y-121700000D02*
X165000000Y-122800000D01*
X139700000Y-118700000D02*
X139500000Y-118500000D01*
X148095000Y-96712000D02*
X148095000Y-97905000D01*
X167000000Y-100000000D02*
X165000000Y-100000000D01*
X150635000Y-96712000D02*
X149365000Y-96712000D01*
X162738000Y-103500000D02*
X161500000Y-103500000D01*
X162532000Y-93095000D02*
X160395000Y-93095000D01*
X162532000Y-93095000D02*
X162532000Y-91332000D01*
X163102500Y-104000000D02*
X163602500Y-103500000D01*
X149365000Y-96712000D02*
X148095000Y-96712000D01*
X166500000Y-122800000D02*
X166500000Y-121700000D01*
X139700000Y-119400000D02*
X139700000Y-118700000D01*
X167685500Y-97685500D02*
X167000000Y-97000000D01*
X165000000Y-100000000D02*
X165000000Y-102102500D01*
X165000000Y-121700000D02*
X166500000Y-121700000D01*
X163000000Y-90000000D02*
X163000000Y-90200000D01*
X160000000Y-100262000D02*
X160000000Y-101500000D01*
X164339500Y-97660500D02*
X165000000Y-97000000D01*
X162532000Y-91332000D02*
X162200000Y-91000000D01*
X164339500Y-99339500D02*
X164339500Y-97660500D01*
%TO.N,Net-(IC1-K1)*%
X154000000Y-118245000D02*
X154000000Y-118600000D01*
X150500000Y-120100000D02*
X152500000Y-120100000D01*
X154000000Y-118600000D02*
X152500000Y-120100000D01*
%TO.N,/V_BAT*%
X155000000Y-118245000D02*
X155550500Y-117694500D01*
X155550500Y-117694500D02*
X161164710Y-117694500D01*
X163500000Y-111500000D02*
X162738000Y-111500000D01*
X161164710Y-117694500D02*
X164254000Y-114605210D01*
X164254000Y-112254000D02*
X163500000Y-111500000D01*
X164254000Y-114605210D02*
X164254000Y-112254000D01*
%TO.N,/NRST*%
X153500000Y-92800000D02*
X153500000Y-91260000D01*
X153500000Y-92800000D02*
X152700000Y-92800000D01*
X153500000Y-91260000D02*
X151190000Y-88950000D01*
X152700000Y-92800000D02*
X152500000Y-93000000D01*
X160000000Y-107500000D02*
X162738000Y-107500000D01*
%TO.N,Net-(IC3-PC14-OSC32_IN)*%
X163666000Y-110563500D02*
X163602500Y-110500000D01*
X163602500Y-110500000D02*
X162738000Y-110500000D01*
X167000000Y-114640790D02*
X163666000Y-111306790D01*
X167000000Y-115500000D02*
X167000000Y-114640790D01*
X163666000Y-111306790D02*
X163666000Y-110563500D01*
X168000000Y-117800000D02*
X168000000Y-116500000D01*
X168000000Y-116500000D02*
X167000000Y-115500000D01*
%TO.N,/LPUART_RX*%
X160500000Y-127900000D02*
X161350000Y-127050000D01*
X160500000Y-128500000D02*
X160500000Y-127900000D01*
X150500000Y-100262000D02*
X150500000Y-99000000D01*
%TO.N,/LPUART_RTS*%
X162500000Y-129500000D02*
X162500000Y-128440000D01*
X162500000Y-128440000D02*
X163890000Y-127050000D01*
X147000000Y-102000000D02*
X146500000Y-101500000D01*
X147262000Y-102000000D02*
X147000000Y-102000000D01*
%TO.N,/DCMI_D6*%
X176000000Y-109575000D02*
X175675000Y-109250000D01*
X158500000Y-115738000D02*
X158500000Y-114500000D01*
X176000000Y-109750000D02*
X176000000Y-109575000D01*
%TO.N,Net-(IC3-PH1-OSC_OUT)*%
X166640500Y-106709500D02*
X164659500Y-106709500D01*
X164000000Y-107369000D02*
X164000000Y-107602500D01*
X164659500Y-106709500D02*
X164000000Y-107369000D01*
X164000000Y-107602500D02*
X163602500Y-108000000D01*
X167800000Y-103900000D02*
X168000000Y-103700000D01*
X167800000Y-105550000D02*
X167800000Y-103900000D01*
X163602500Y-108000000D02*
X162738000Y-108000000D01*
X167800000Y-105550000D02*
X166640500Y-106709500D01*
%TO.N,/DCMI_D2*%
X174250000Y-111750000D02*
X175675000Y-111750000D01*
X150122962Y-109000000D02*
X153122962Y-112000000D01*
X174000000Y-112000000D02*
X174250000Y-111750000D01*
X147262000Y-109000000D02*
X148500000Y-109000000D01*
X153122962Y-112000000D02*
X159500000Y-112000000D01*
X149500000Y-109000000D02*
X150122962Y-109000000D01*
X174000000Y-112500000D02*
X174000000Y-112000000D01*
%TO.N,/QUADSPI_BK2_IO1*%
X156365000Y-94365000D02*
X158500000Y-96500000D01*
X155468000Y-94365000D02*
X156365000Y-94365000D01*
X161500000Y-106000000D02*
X162738000Y-106000000D01*
%TO.N,/DCMI_D3*%
X153000000Y-112500000D02*
X160000000Y-112500000D01*
X173500000Y-110206000D02*
X171956000Y-111750000D01*
X173500000Y-109500000D02*
X173500000Y-110206000D01*
X147262000Y-109500000D02*
X146000000Y-109500000D01*
X150000000Y-109500000D02*
X153000000Y-112500000D01*
X171956000Y-111750000D02*
X171325000Y-111750000D01*
%TO.N,/QUADSPI_BK2_IO0*%
X162738000Y-106500000D02*
X161000000Y-106500000D01*
X161500000Y-97937000D02*
X162532000Y-96905000D01*
X160000000Y-103000000D02*
X161500000Y-101500000D01*
X161500000Y-101500000D02*
X161500000Y-97937000D01*
X161000000Y-106500000D02*
X160000000Y-105500000D01*
X160000000Y-105500000D02*
X160000000Y-103000000D01*
%TO.N,/DCMI_VSYNC*%
X157500000Y-115738000D02*
X157500000Y-114500000D01*
X173000000Y-105500000D02*
X171325000Y-105500000D01*
%TO.N,/QUADSPI_CLK*%
X162532000Y-95635000D02*
X161964500Y-95635000D01*
X161000000Y-96599500D02*
X161000000Y-100262000D01*
X161964500Y-95635000D02*
X161000000Y-96599500D01*
%TO.N,Net-(IC3-PH3-BOOT0)*%
X154500000Y-123200000D02*
X152500000Y-123200000D01*
X154500000Y-123200000D02*
X154500000Y-122500000D01*
X158000000Y-117000000D02*
X158000000Y-115738000D01*
%TO.N,/Control*%
X161731000Y-121700000D02*
X164965500Y-118465500D01*
X150500000Y-121700000D02*
X161731000Y-121700000D01*
X165000000Y-118431000D02*
X165000000Y-113500000D01*
X164965500Y-118465500D02*
X165000000Y-118431000D01*
%TO.N,/SWDIO*%
X134989500Y-121009500D02*
X134989500Y-116010500D01*
X135950000Y-121970000D02*
X134989500Y-121009500D01*
X143000000Y-113500000D02*
X144000000Y-112500000D01*
X146000000Y-112500000D02*
X147262000Y-112500000D01*
X137500000Y-113500000D02*
X143000000Y-113500000D01*
X134989500Y-116010500D02*
X137500000Y-113500000D01*
%TO.N,/DCMI_PIXCLK*%
X169500000Y-107500000D02*
X170000000Y-107000000D01*
X171075000Y-107000000D02*
X171325000Y-106750000D01*
X158500000Y-100262000D02*
X158500000Y-99000000D01*
X170000000Y-107000000D02*
X171075000Y-107000000D01*
%TO.N,/LED2*%
X152000000Y-115738000D02*
X152000000Y-116602500D01*
X152000000Y-116602500D02*
X150848500Y-117754000D01*
X143500000Y-118000000D02*
X143500000Y-119200000D01*
X150848500Y-117754000D02*
X146754000Y-117754000D01*
X146754000Y-117754000D02*
X146000000Y-117000000D01*
%TO.N,Net-(IC3-PH0-OSC_IN)*%
X164450000Y-108500000D02*
X165500000Y-107450000D01*
X162738000Y-108500000D02*
X164450000Y-108500000D01*
%TO.N,/D-*%
X141750000Y-108250000D02*
X144500000Y-111000000D01*
X146000000Y-111500000D02*
X147262000Y-111500000D01*
%TO.N,/LPUART_CTS*%
X147262000Y-102500000D02*
X146000000Y-102500000D01*
X155000000Y-130000000D02*
X155000000Y-128320000D01*
X155000000Y-128320000D02*
X156270000Y-127050000D01*
%TO.N,/USART1_RX*%
X161900000Y-89500000D02*
X161350000Y-88950000D01*
X162500000Y-89500000D02*
X161900000Y-89500000D01*
X147262000Y-111000000D02*
X148500000Y-111000000D01*
%TO.N,/DCMI_HSYNC*%
X173500000Y-106500000D02*
X174500000Y-105500000D01*
X174500000Y-105500000D02*
X175675000Y-105500000D01*
X159500000Y-100262000D02*
X159500000Y-99000000D01*
%TO.N,/QUADSPI_BK2_IO3*%
X162532000Y-94365000D02*
X161964500Y-94365000D01*
X157500000Y-98829500D02*
X157500000Y-100262000D01*
X161964500Y-94365000D02*
X157500000Y-98829500D01*
%TO.N,/QUADSPI_BK2_IO2*%
X161000000Y-105500000D02*
X162738000Y-105500000D01*
X155468000Y-95635000D02*
X156635000Y-95635000D01*
X156635000Y-95635000D02*
X158000000Y-97000000D01*
%TO.N,/DCMI_D4*%
X150500000Y-115738000D02*
X150500000Y-114873500D01*
X150500000Y-114873500D02*
X151873500Y-113500000D01*
X174000000Y-110500000D02*
X175675000Y-110500000D01*
X151873500Y-113500000D02*
X161000000Y-113500000D01*
%TO.N,/SWCLK*%
X144460000Y-116000000D02*
X145000000Y-116000000D01*
X135950000Y-124510000D02*
X144460000Y-116000000D01*
X149000000Y-117000000D02*
X149000000Y-115738000D01*
%TO.N,/USART1_CK*%
X147262000Y-110000000D02*
X148500000Y-110000000D01*
X152500000Y-89500000D02*
X153180000Y-89500000D01*
X153180000Y-89500000D02*
X153730000Y-88950000D01*
%TO.N,/D+*%
X141250000Y-108750000D02*
X144500000Y-112000000D01*
X148500000Y-112000000D02*
X147262000Y-112000000D01*
%TO.N,/DCMI_D7*%
X171575000Y-109000000D02*
X171325000Y-109250000D01*
X174000000Y-109000000D02*
X171575000Y-109000000D01*
X159373500Y-114500000D02*
X160000000Y-114500000D01*
X159000000Y-114873500D02*
X159373500Y-114500000D01*
X159000000Y-115738000D02*
X159000000Y-114873500D01*
%TO.N,Net-(IC3-PC15-OSC32_OUT)*%
X169500000Y-117800000D02*
X169500000Y-115450000D01*
X163602500Y-110000000D02*
X162738000Y-110000000D01*
X164000000Y-110397500D02*
X163602500Y-110000000D01*
X167000000Y-112950000D02*
X165990500Y-111940500D01*
X169500000Y-115450000D02*
X167000000Y-112950000D01*
X164678500Y-111940500D02*
X164000000Y-111262000D01*
X165990500Y-111940500D02*
X164678500Y-111940500D01*
X164000000Y-111262000D02*
X164000000Y-110397500D01*
%TO.N,/DCMI_D5*%
X169984500Y-112290500D02*
X169984500Y-111040500D01*
X170525000Y-110500000D02*
X171325000Y-110500000D01*
X169984500Y-111040500D02*
X170525000Y-110500000D01*
X174706000Y-114500000D02*
X172665500Y-112459500D01*
X172665500Y-112459500D02*
X170153500Y-112459500D01*
X170153500Y-112459500D02*
X169984500Y-112290500D01*
X175500000Y-114500000D02*
X174706000Y-114500000D01*
X157000000Y-115738000D02*
X157000000Y-117000000D01*
%TO.N,/QUADSPI_BK1_NCS*%
X156700000Y-91000000D02*
X156700000Y-91863000D01*
X156700000Y-91863000D02*
X155468000Y-93095000D01*
X155468000Y-93095000D02*
X156095000Y-93095000D01*
X156095000Y-93095000D02*
X158500000Y-95500000D01*
X163000000Y-101738000D02*
X162738000Y-102000000D01*
X163000000Y-101500000D02*
X163000000Y-101738000D01*
%TO.N,/USART1_TX*%
X158360000Y-88500000D02*
X158810000Y-88950000D01*
X147262000Y-110500000D02*
X146000000Y-110500000D01*
X157500000Y-88500000D02*
X158360000Y-88500000D01*
%TO.N,/LPUART_TX*%
X157500000Y-129000000D02*
X157500000Y-128360000D01*
X157500000Y-128360000D02*
X158810000Y-127050000D01*
X150000000Y-100262000D02*
X150000000Y-101500000D01*
%TO.N,/LED1*%
X150602500Y-117500000D02*
X147500000Y-117500000D01*
X145500000Y-118000000D02*
X145500000Y-118700000D01*
X145500000Y-118700000D02*
X146000000Y-119200000D01*
X147500000Y-117500000D02*
X147000000Y-117000000D01*
X151500000Y-115738000D02*
X151500000Y-116602500D01*
X151500000Y-116602500D02*
X150602500Y-117500000D01*
%TO.N,Net-(IC1-A1{slash}K2)*%
X159500000Y-119200000D02*
X155055000Y-119200000D01*
X155055000Y-119200000D02*
X154500000Y-119755000D01*
%TO.N,Net-(IC2-G)*%
X149377038Y-98500000D02*
X148559500Y-99317538D01*
X148000000Y-115469500D02*
X148000000Y-117000000D01*
X148559500Y-108436538D02*
X148940500Y-108817538D01*
X148559500Y-99317538D02*
X148559500Y-108436538D01*
X148940500Y-108817538D02*
X148940500Y-114529000D01*
X148000000Y-120800000D02*
X150500000Y-123300000D01*
X148940500Y-114529000D02*
X148000000Y-115469500D01*
X151905000Y-97149500D02*
X150554500Y-98500000D01*
X148000000Y-119000000D02*
X148000000Y-120800000D01*
X150554500Y-98500000D02*
X149377038Y-98500000D01*
X151905000Y-96712000D02*
X151905000Y-97149500D01*
%TO.N,/BOOT0*%
X154500000Y-126280000D02*
X153730000Y-127050000D01*
X154500000Y-124800000D02*
X154500000Y-126280000D01*
%TO.N,VDD*%
X138160000Y-116890000D02*
X138200000Y-116850000D01*
X135950000Y-116890000D02*
X138160000Y-116890000D01*
%TO.N,Net-(LED1-A)*%
X146000000Y-120800000D02*
X146000000Y-122750000D01*
%TO.N,Net-(LED2-A)*%
X143500000Y-120800000D02*
X143500000Y-122750000D01*
%TO.N,/I2C3_SDA*%
X156000000Y-115738000D02*
X156000000Y-117000000D01*
%TO.N,/DCMI_D8*%
X150000000Y-114873500D02*
X151873500Y-113000000D01*
X174000000Y-108000000D02*
X175675000Y-108000000D01*
X151873500Y-113000000D02*
X160500000Y-113000000D01*
X150000000Y-115738000D02*
X150000000Y-114873500D01*
%TO.N,/I2C3_SCL*%
X163500000Y-107000000D02*
X164000000Y-106500000D01*
X162738000Y-107000000D02*
X163500000Y-107000000D01*
%TO.N,/DCMI_D9*%
X151000000Y-114873500D02*
X151873500Y-114000000D01*
X151000000Y-115738000D02*
X151000000Y-114873500D01*
X169500000Y-109000000D02*
X170500000Y-108000000D01*
X170500000Y-108000000D02*
X171325000Y-108000000D01*
X151873500Y-114000000D02*
X156500000Y-114000000D01*
%TO.N,Net-(J3-CC2)*%
X140500000Y-114500000D02*
X141470000Y-114500000D01*
%TO.N,Net-(J3-CC1)*%
X140300000Y-101300000D02*
X139000000Y-101300000D01*
X140500000Y-101500000D02*
X140300000Y-101300000D01*
%TO.N,/VBUS*%
X143059500Y-103262500D02*
X143059500Y-94853000D01*
X143059500Y-94853000D02*
X143550000Y-94362500D01*
X140872000Y-105450000D02*
X143059500Y-103262500D01*
%TO.N,Net-(J3-CC1)*%
X142000000Y-105622000D02*
X142000000Y-105000000D01*
%TO.N,/VBUS*%
X139150500Y-106259000D02*
X139659500Y-105750000D01*
%TO.N,/D-*%
X141000000Y-107500000D02*
X140750000Y-107250000D01*
X141250000Y-108250000D02*
X141750000Y-108250000D01*
X141000000Y-108122000D02*
X141000000Y-107500000D01*
X140170000Y-108250000D02*
X140872000Y-108250000D01*
%TO.N,Net-(J3-CC2)*%
X140170000Y-109750000D02*
X140872000Y-109750000D01*
%TO.N,/D-*%
X140170000Y-108250000D02*
X141250000Y-108250000D01*
%TO.N,/D+*%
X140170000Y-108750000D02*
X141250000Y-108750000D01*
%TO.N,/D-*%
X140872000Y-108250000D02*
X141000000Y-108122000D01*
%TO.N,Net-(J3-CC2)*%
X140872000Y-109750000D02*
X141500000Y-110378000D01*
X141500000Y-110378000D02*
X141500000Y-113000000D01*
%TO.N,GND*%
X140850000Y-111350000D02*
X141000000Y-111500000D01*
X140170000Y-111350000D02*
X140850000Y-111350000D01*
X140170000Y-111050000D02*
X140170000Y-111350000D01*
%TO.N,/VBUS*%
X140170000Y-110250000D02*
X140170000Y-110550000D01*
%TO.N,/D+*%
X139404500Y-108686500D02*
X139404500Y-107813500D01*
%TO.N,/VBUS*%
X140170000Y-110550000D02*
X139745000Y-110550000D01*
%TO.N,/D+*%
X140170000Y-108750000D02*
X139468000Y-108750000D01*
%TO.N,/VBUS*%
X139745000Y-110550000D02*
X139150500Y-109955500D01*
X139150500Y-109955500D02*
X139150500Y-106259000D01*
%TO.N,/D+*%
X139468000Y-107750000D02*
X140170000Y-107750000D01*
X139468000Y-108750000D02*
X139404500Y-108686500D01*
X139404500Y-107813500D02*
X139468000Y-107750000D01*
%TO.N,GND*%
X140170000Y-104950000D02*
X140170000Y-104650000D01*
X140170000Y-104650000D02*
X140350000Y-104650000D01*
X140350000Y-104650000D02*
X141000000Y-104000000D01*
%TO.N,/VBUS*%
X140170000Y-105450000D02*
X140872000Y-105450000D01*
X140170000Y-105450000D02*
X140170000Y-105750000D01*
X139659500Y-105750000D02*
X140170000Y-105750000D01*
%TO.N,/D-*%
X140750000Y-107250000D02*
X140170000Y-107250000D01*
%TO.N,Net-(J3-CC1)*%
X140170000Y-106750000D02*
X140872000Y-106750000D01*
X140872000Y-106750000D02*
X142000000Y-105622000D01*
%TO.N,/I2C3_SDA*%
X173000000Y-108000000D02*
X173709500Y-107290500D01*
X176475000Y-104250000D02*
X175675000Y-104250000D01*
X177411500Y-105186500D02*
X176475000Y-104250000D01*
X177411500Y-107088500D02*
X177411500Y-105186500D01*
X177209500Y-107290500D02*
X177411500Y-107088500D01*
X173709500Y-107290500D02*
X177209500Y-107290500D01*
%TO.N,GND*%
X176500000Y-102000000D02*
X175675000Y-102825000D01*
X175675000Y-102825000D02*
X175675000Y-103000000D01*
%TO.N,/I2C3_SCL*%
X169500000Y-104500000D02*
X169750000Y-104250000D01*
X169750000Y-104250000D02*
X171325000Y-104250000D01*
%TD*%
M02*
