%TF.GenerationSoftware,KiCad,Pcbnew,8.0.6-8.0.6-0~ubuntu24.04.1*%
%TF.CreationDate,2024-10-18T10:44:36-04:00*%
%TF.ProjectId,ta-expt-v2,74612d65-7870-4742-9d76-322e6b696361,rev?*%
%TF.SameCoordinates,Original*%
%TF.FileFunction,Paste,Top*%
%TF.FilePolarity,Positive*%
%FSLAX46Y46*%
G04 Gerber Fmt 4.6, Leading zero omitted, Abs format (unit mm)*
G04 Created by KiCad (PCBNEW 8.0.6-8.0.6-0~ubuntu24.04.1) date 2024-10-18 10:44:36*
%MOMM*%
%LPD*%
G01*
G04 APERTURE LIST*
G04 Aperture macros list*
%AMRoundRect*
0 Rectangle with rounded corners*
0 $1 Rounding radius*
0 $2 $3 $4 $5 $6 $7 $8 $9 X,Y pos of 4 corners*
0 Add a 4 corners polygon primitive as box body*
4,1,4,$2,$3,$4,$5,$6,$7,$8,$9,$2,$3,0*
0 Add four circle primitives for the rounded corners*
1,1,$1+$1,$2,$3*
1,1,$1+$1,$4,$5*
1,1,$1+$1,$6,$7*
1,1,$1+$1,$8,$9*
0 Add four rect primitives between the rounded corners*
20,1,$1+$1,$2,$3,$4,$5,0*
20,1,$1+$1,$4,$5,$6,$7,0*
20,1,$1+$1,$6,$7,$8,$9,0*
20,1,$1+$1,$8,$9,$2,$3,0*%
G04 Aperture macros list end*
%ADD10R,0.990000X0.780000*%
%ADD11R,1.000000X0.800000*%
%ADD12R,0.780000X0.990000*%
%ADD13R,6.400000X2.300000*%
%ADD14R,0.300000X1.475000*%
%ADD15R,1.475000X0.300000*%
%ADD16R,1.785000X0.650000*%
%ADD17R,0.940000X0.750000*%
%ADD18R,0.800000X0.800000*%
%ADD19R,1.300000X1.100000*%
%ADD20R,0.900000X1.000000*%
%ADD21R,1.800000X1.000000*%
%ADD22R,0.800000X1.000000*%
%ADD23R,1.150000X0.300000*%
%ADD24R,0.480000X0.630000*%
%ADD25RoundRect,0.150000X-0.150000X0.512500X-0.150000X-0.512500X0.150000X-0.512500X0.150000X0.512500X0*%
%ADD26R,2.300000X0.700000*%
%ADD27R,0.650000X1.525000*%
G04 APERTURE END LIST*
D10*
%TO.C,C15*%
X168000000Y-122000000D03*
X168000000Y-120600000D03*
%TD*%
%TO.C,C11*%
X165000000Y-122800000D03*
X165000000Y-124200000D03*
%TD*%
D11*
%TO.C,R6*%
X154500000Y-123200000D03*
X154500000Y-124800000D03*
%TD*%
%TO.C,R1*%
X146000000Y-120800000D03*
X146000000Y-119200000D03*
%TD*%
D10*
%TO.C,C8*%
X168000000Y-119200000D03*
X168000000Y-117800000D03*
%TD*%
D12*
%TO.C,C17*%
X160800000Y-91000000D03*
X162200000Y-91000000D03*
%TD*%
D13*
%TO.C,C1*%
X159500000Y-123800000D03*
X159500000Y-119200000D03*
%TD*%
D14*
%TO.C,IC3*%
X161000000Y-115738000D03*
X160500000Y-115738000D03*
X160000000Y-115738000D03*
X159500000Y-115738000D03*
X159000000Y-115738000D03*
X158500000Y-115738000D03*
X158000000Y-115738000D03*
X157500000Y-115738000D03*
X157000000Y-115738000D03*
X156500000Y-115738000D03*
X156000000Y-115738000D03*
X155500000Y-115738000D03*
X155000000Y-115738000D03*
X154500000Y-115738000D03*
X154000000Y-115738000D03*
X153500000Y-115738000D03*
X153000000Y-115738000D03*
X152500000Y-115738000D03*
X152000000Y-115738000D03*
X151500000Y-115738000D03*
X151000000Y-115738000D03*
X150500000Y-115738000D03*
X150000000Y-115738000D03*
X149500000Y-115738000D03*
X149000000Y-115738000D03*
D15*
X147262000Y-114000000D03*
X147262000Y-113500000D03*
X147262000Y-113000000D03*
X147262000Y-112500000D03*
X147262000Y-112000000D03*
X147262000Y-111500000D03*
X147262000Y-111000000D03*
X147262000Y-110500000D03*
X147262000Y-110000000D03*
X147262000Y-109500000D03*
X147262000Y-109000000D03*
X147262000Y-108500000D03*
X147262000Y-108000000D03*
X147262000Y-107500000D03*
X147262000Y-107000000D03*
X147262000Y-106500000D03*
X147262000Y-106000000D03*
X147262000Y-105500000D03*
X147262000Y-105000000D03*
X147262000Y-104500000D03*
X147262000Y-104000000D03*
X147262000Y-103500000D03*
X147262000Y-103000000D03*
X147262000Y-102500000D03*
X147262000Y-102000000D03*
D14*
X149000000Y-100262000D03*
X149500000Y-100262000D03*
X150000000Y-100262000D03*
X150500000Y-100262000D03*
X151000000Y-100262000D03*
X151500000Y-100262000D03*
X152000000Y-100262000D03*
X152500000Y-100262000D03*
X153000000Y-100262000D03*
X153500000Y-100262000D03*
X154000000Y-100262000D03*
X154500000Y-100262000D03*
X155000000Y-100262000D03*
X155500000Y-100262000D03*
X156000000Y-100262000D03*
X156500000Y-100262000D03*
X157000000Y-100262000D03*
X157500000Y-100262000D03*
X158000000Y-100262000D03*
X158500000Y-100262000D03*
X159000000Y-100262000D03*
X159500000Y-100262000D03*
X160000000Y-100262000D03*
X160500000Y-100262000D03*
X161000000Y-100262000D03*
D15*
X162738000Y-102000000D03*
X162738000Y-102500000D03*
X162738000Y-103000000D03*
X162738000Y-103500000D03*
X162738000Y-104000000D03*
X162738000Y-104500000D03*
X162738000Y-105000000D03*
X162738000Y-105500000D03*
X162738000Y-106000000D03*
X162738000Y-106500000D03*
X162738000Y-107000000D03*
X162738000Y-107500000D03*
X162738000Y-108000000D03*
X162738000Y-108500000D03*
X162738000Y-109000000D03*
X162738000Y-109500000D03*
X162738000Y-110000000D03*
X162738000Y-110500000D03*
X162738000Y-111000000D03*
X162738000Y-111500000D03*
X162738000Y-112000000D03*
X162738000Y-112500000D03*
X162738000Y-113000000D03*
X162738000Y-113500000D03*
X162738000Y-114000000D03*
%TD*%
D10*
%TO.C,C10*%
X153500000Y-94200000D03*
X153500000Y-92800000D03*
%TD*%
D16*
%TO.C,IC4*%
X162532000Y-93095000D03*
X162532000Y-94365000D03*
X162532000Y-95635000D03*
X162532000Y-96905000D03*
X155468000Y-96905000D03*
X155468000Y-95635000D03*
X155468000Y-94365000D03*
X155468000Y-93095000D03*
%TD*%
D17*
%TO.C,C5*%
X165000000Y-98600000D03*
X165000000Y-100000000D03*
%TD*%
D10*
%TO.C,C19*%
X146000000Y-90800000D03*
X146000000Y-92200000D03*
%TD*%
%TO.C,C18*%
X143500000Y-92200000D03*
X143500000Y-90800000D03*
%TD*%
D12*
%TO.C,C6*%
X167700000Y-110000000D03*
X166300000Y-110000000D03*
%TD*%
D18*
%TO.C,LED1*%
X146000000Y-122750000D03*
X146000000Y-124250000D03*
%TD*%
D19*
%TO.C,Y1*%
X165500000Y-105550000D03*
X167800000Y-105550000D03*
X167800000Y-107450000D03*
X165500000Y-107450000D03*
%TD*%
D10*
%TO.C,C3*%
X168000000Y-102300000D03*
X168000000Y-103700000D03*
%TD*%
D20*
%TO.C,FB1*%
X139800000Y-116850000D03*
X138200000Y-116850000D03*
%TD*%
D10*
%TO.C,C9*%
X167000000Y-95600000D03*
X167000000Y-97000000D03*
%TD*%
%TO.C,C13*%
X165000000Y-120300000D03*
X165000000Y-121700000D03*
%TD*%
D21*
%TO.C,Y2*%
X167000000Y-112950000D03*
X167000000Y-115500000D03*
%TD*%
D22*
%TO.C,R7*%
X156700000Y-91000000D03*
X158300000Y-91000000D03*
%TD*%
D18*
%TO.C,LED2*%
X143500000Y-122750000D03*
X143500000Y-124250000D03*
%TD*%
D10*
%TO.C,C14*%
X166500000Y-122800000D03*
X166500000Y-124200000D03*
%TD*%
D11*
%TO.C,R8*%
X139000000Y-101300000D03*
X139000000Y-99700000D03*
%TD*%
%TO.C,R4*%
X150500000Y-123300000D03*
X150500000Y-121700000D03*
%TD*%
D23*
%TO.C,J3*%
X140170000Y-104950000D03*
X140170000Y-105750000D03*
X140170000Y-106250000D03*
X140170000Y-107250000D03*
X140170000Y-108750000D03*
X140170000Y-109750000D03*
X140170000Y-110250000D03*
X140170000Y-111050000D03*
X140170000Y-111350000D03*
X140170000Y-110550000D03*
X140170000Y-109250000D03*
X140170000Y-108250000D03*
X140170000Y-107750000D03*
X140170000Y-106750000D03*
X140170000Y-105450000D03*
X140170000Y-104650000D03*
%TD*%
D10*
%TO.C,C7*%
X165000000Y-95600000D03*
X165000000Y-97000000D03*
%TD*%
D11*
%TO.C,R3*%
X150500000Y-118500000D03*
X150500000Y-120100000D03*
%TD*%
D10*
%TO.C,C12*%
X167000000Y-98600000D03*
X167000000Y-100000000D03*
%TD*%
D22*
%TO.C,R9*%
X141470000Y-114500000D03*
X143070000Y-114500000D03*
%TD*%
D10*
%TO.C,C4*%
X169500000Y-119200000D03*
X169500000Y-117800000D03*
%TD*%
D24*
%TO.C,IC1*%
X154500000Y-119755000D03*
X154000000Y-118245000D03*
X155000000Y-118245000D03*
%TD*%
D11*
%TO.C,R5*%
X152500000Y-124800000D03*
X152500000Y-123200000D03*
%TD*%
D25*
%TO.C,U1*%
X145450000Y-96637500D03*
X143550000Y-96637500D03*
X143550000Y-94362500D03*
X144500000Y-94362500D03*
X145450000Y-94362500D03*
%TD*%
D26*
%TO.C,J5*%
X175500000Y-103000000D03*
X171150000Y-103000000D03*
X175500000Y-104250000D03*
X171150000Y-104250000D03*
X175500000Y-105500000D03*
X171150000Y-105500000D03*
X175500000Y-106750000D03*
X171150000Y-106750000D03*
X175500000Y-108000000D03*
X171150000Y-108000000D03*
X175500000Y-109250000D03*
X171150000Y-109250000D03*
X175500000Y-110500000D03*
X171150000Y-110500000D03*
X175500000Y-111750000D03*
X171150000Y-111750000D03*
X175500000Y-113000000D03*
X171150000Y-113000000D03*
%TD*%
D27*
%TO.C,IC2*%
X148095000Y-91288000D03*
X149365000Y-91288000D03*
X150635000Y-91288000D03*
X151905000Y-91288000D03*
X151905000Y-96712000D03*
X150635000Y-96712000D03*
X149365000Y-96712000D03*
X148095000Y-96712000D03*
%TD*%
D10*
%TO.C,C16*%
X166500000Y-121700000D03*
X166500000Y-120300000D03*
%TD*%
D11*
%TO.C,R2*%
X143500000Y-120800000D03*
X143500000Y-119200000D03*
%TD*%
D12*
%TO.C,C2*%
X138300000Y-119400000D03*
X139700000Y-119400000D03*
%TD*%
M02*
